<mxfile host="app.diagrams.net" modified="2024-05-02T16:30:58.674Z" agent="Mozilla/5.0 (Windows NT 10.0; Win64; x64) AppleWebKit/537.36 (KHTML, like Gecko) Chrome/124.0.0.0 Safari/537.36" etag="MOYjcL_tMenx3SnAD685" version="24.3.1" type="device">
  <diagram id="R2lEEEUBdFMjLlhIrx00" name="Page-1">
    <mxGraphModel dx="2074" dy="1251" grid="1" gridSize="10" guides="1" tooltips="1" connect="1" arrows="1" fold="1" page="1" pageScale="1" pageWidth="827" pageHeight="1169" math="0" shadow="0" extFonts="Permanent Marker^https://fonts.googleapis.com/css?family=Permanent+Marker">
      <root>
        <mxCell id="0" />
        <mxCell id="1" parent="0" />
        <mxCell id="mGSZd0utrWz6Nr2re_fI-3" value="" style="rounded=0;whiteSpace=wrap;html=1;fillColor=none;" parent="1" vertex="1">
          <mxGeometry x="40" y="450" width="220" height="270" as="geometry" />
        </mxCell>
        <mxCell id="C-vyLk0tnHw3VtMMgP7b-23" value="Alojamiento" style="shape=table;startSize=30;container=1;collapsible=1;childLayout=tableLayout;fixedRows=1;rowLines=0;fontStyle=1;align=center;resizeLast=1;" parent="1" vertex="1">
          <mxGeometry x="785" y="450" width="320" height="240.00000000000023" as="geometry">
            <mxRectangle x="120" y="120" width="100" height="30" as="alternateBounds" />
          </mxGeometry>
        </mxCell>
        <mxCell id="GycDy_H_GqbqvFSR0S_4-145" style="shape=partialRectangle;collapsible=0;dropTarget=0;pointerEvents=0;fillColor=none;points=[[0,0.5],[1,0.5]];portConstraint=eastwest;top=0;left=0;right=0;bottom=0;" parent="C-vyLk0tnHw3VtMMgP7b-23" vertex="1">
          <mxGeometry y="30" width="320" height="30" as="geometry" />
        </mxCell>
        <mxCell id="GycDy_H_GqbqvFSR0S_4-146" value="PK" style="shape=partialRectangle;overflow=hidden;connectable=0;fillColor=none;top=0;left=0;bottom=0;right=0;fontStyle=1;" parent="GycDy_H_GqbqvFSR0S_4-145" vertex="1">
          <mxGeometry width="70" height="30" as="geometry">
            <mxRectangle width="70" height="30" as="alternateBounds" />
          </mxGeometry>
        </mxCell>
        <mxCell id="GycDy_H_GqbqvFSR0S_4-147" value="id_alojamiento" style="shape=partialRectangle;overflow=hidden;connectable=0;fillColor=none;top=0;left=0;bottom=0;right=0;align=left;spacingLeft=6;fontStyle=0;labelBorderColor=none;" parent="GycDy_H_GqbqvFSR0S_4-145" vertex="1">
          <mxGeometry x="70" width="150" height="30" as="geometry">
            <mxRectangle width="150" height="30" as="alternateBounds" />
          </mxGeometry>
        </mxCell>
        <mxCell id="GycDy_H_GqbqvFSR0S_4-148" value="BIGINT" style="shape=partialRectangle;overflow=hidden;connectable=0;fillColor=none;top=0;left=0;bottom=0;right=0;align=left;spacingLeft=6;fontStyle=0;labelBorderColor=none;" parent="GycDy_H_GqbqvFSR0S_4-145" vertex="1">
          <mxGeometry x="220" width="100" height="30" as="geometry">
            <mxRectangle width="100" height="30" as="alternateBounds" />
          </mxGeometry>
        </mxCell>
        <mxCell id="GycDy_H_GqbqvFSR0S_4-137" style="shape=partialRectangle;collapsible=0;dropTarget=0;pointerEvents=0;fillColor=none;points=[[0,0.5],[1,0.5]];portConstraint=eastwest;top=0;left=0;right=0;bottom=1;" parent="C-vyLk0tnHw3VtMMgP7b-23" vertex="1">
          <mxGeometry y="60" width="320" height="30" as="geometry" />
        </mxCell>
        <mxCell id="GycDy_H_GqbqvFSR0S_4-138" value="FK" style="shape=partialRectangle;overflow=hidden;connectable=0;fillColor=none;top=0;left=0;bottom=0;right=0;fontStyle=1;" parent="GycDy_H_GqbqvFSR0S_4-137" vertex="1">
          <mxGeometry width="70" height="30" as="geometry">
            <mxRectangle width="70" height="30" as="alternateBounds" />
          </mxGeometry>
        </mxCell>
        <mxCell id="GycDy_H_GqbqvFSR0S_4-139" value="id_usuario" style="shape=partialRectangle;overflow=hidden;connectable=0;fillColor=none;top=0;left=0;bottom=0;right=0;align=left;spacingLeft=6;fontStyle=0;labelBorderColor=none;" parent="GycDy_H_GqbqvFSR0S_4-137" vertex="1">
          <mxGeometry x="70" width="150" height="30" as="geometry">
            <mxRectangle width="150" height="30" as="alternateBounds" />
          </mxGeometry>
        </mxCell>
        <mxCell id="GycDy_H_GqbqvFSR0S_4-140" value="BIGINT" style="shape=partialRectangle;overflow=hidden;connectable=0;fillColor=none;top=0;left=0;bottom=0;right=0;align=left;spacingLeft=6;fontStyle=0;labelBorderColor=none;" parent="GycDy_H_GqbqvFSR0S_4-137" vertex="1">
          <mxGeometry x="220" width="100" height="30" as="geometry">
            <mxRectangle width="100" height="30" as="alternateBounds" />
          </mxGeometry>
        </mxCell>
        <mxCell id="C-vyLk0tnHw3VtMMgP7b-27" value="" style="shape=partialRectangle;collapsible=0;dropTarget=0;pointerEvents=0;fillColor=none;points=[[0,0.5],[1,0.5]];portConstraint=eastwest;top=0;left=0;right=0;bottom=0;" parent="C-vyLk0tnHw3VtMMgP7b-23" vertex="1">
          <mxGeometry y="90" width="320" height="30" as="geometry" />
        </mxCell>
        <mxCell id="C-vyLk0tnHw3VtMMgP7b-28" value="NOT NULL" style="shape=partialRectangle;overflow=hidden;connectable=0;fillColor=none;top=0;left=0;bottom=0;right=0;" parent="C-vyLk0tnHw3VtMMgP7b-27" vertex="1">
          <mxGeometry width="70" height="30" as="geometry">
            <mxRectangle width="70" height="30" as="alternateBounds" />
          </mxGeometry>
        </mxCell>
        <mxCell id="C-vyLk0tnHw3VtMMgP7b-29" value="txt_nombre" style="shape=partialRectangle;overflow=hidden;connectable=0;fillColor=none;top=0;left=0;bottom=0;right=0;align=left;spacingLeft=6;" parent="C-vyLk0tnHw3VtMMgP7b-27" vertex="1">
          <mxGeometry x="70" width="150" height="30" as="geometry">
            <mxRectangle width="150" height="30" as="alternateBounds" />
          </mxGeometry>
        </mxCell>
        <mxCell id="GycDy_H_GqbqvFSR0S_4-115" value="VARCHAR(50)" style="shape=partialRectangle;overflow=hidden;connectable=0;fillColor=none;top=0;left=0;bottom=0;right=0;align=left;spacingLeft=6;" parent="C-vyLk0tnHw3VtMMgP7b-27" vertex="1">
          <mxGeometry x="220" width="100" height="30" as="geometry">
            <mxRectangle width="100" height="30" as="alternateBounds" />
          </mxGeometry>
        </mxCell>
        <mxCell id="GycDy_H_GqbqvFSR0S_4-24" style="shape=partialRectangle;collapsible=0;dropTarget=0;pointerEvents=0;fillColor=none;points=[[0,0.5],[1,0.5]];portConstraint=eastwest;top=0;left=0;right=0;bottom=0;" parent="C-vyLk0tnHw3VtMMgP7b-23" vertex="1">
          <mxGeometry y="120" width="320" height="30" as="geometry" />
        </mxCell>
        <mxCell id="GycDy_H_GqbqvFSR0S_4-25" value="NOT NULL" style="shape=partialRectangle;overflow=hidden;connectable=0;fillColor=none;top=0;left=0;bottom=0;right=0;" parent="GycDy_H_GqbqvFSR0S_4-24" vertex="1">
          <mxGeometry width="70" height="30" as="geometry">
            <mxRectangle width="70" height="30" as="alternateBounds" />
          </mxGeometry>
        </mxCell>
        <mxCell id="GycDy_H_GqbqvFSR0S_4-26" value="txt_descripcion" style="shape=partialRectangle;overflow=hidden;connectable=0;fillColor=none;top=0;left=0;bottom=0;right=0;align=left;spacingLeft=6;" parent="GycDy_H_GqbqvFSR0S_4-24" vertex="1">
          <mxGeometry x="70" width="150" height="30" as="geometry">
            <mxRectangle width="150" height="30" as="alternateBounds" />
          </mxGeometry>
        </mxCell>
        <mxCell id="GycDy_H_GqbqvFSR0S_4-116" value="VARCHAR(255)" style="shape=partialRectangle;overflow=hidden;connectable=0;fillColor=none;top=0;left=0;bottom=0;right=0;align=left;spacingLeft=6;" parent="GycDy_H_GqbqvFSR0S_4-24" vertex="1">
          <mxGeometry x="220" width="100" height="30" as="geometry">
            <mxRectangle width="100" height="30" as="alternateBounds" />
          </mxGeometry>
        </mxCell>
        <mxCell id="GycDy_H_GqbqvFSR0S_4-27" style="shape=partialRectangle;collapsible=0;dropTarget=0;pointerEvents=0;fillColor=none;points=[[0,0.5],[1,0.5]];portConstraint=eastwest;top=0;left=0;right=0;bottom=0;" parent="C-vyLk0tnHw3VtMMgP7b-23" vertex="1">
          <mxGeometry y="150" width="320" height="30" as="geometry" />
        </mxCell>
        <mxCell id="GycDy_H_GqbqvFSR0S_4-28" value="NOT NULL" style="shape=partialRectangle;overflow=hidden;connectable=0;fillColor=none;top=0;left=0;bottom=0;right=0;" parent="GycDy_H_GqbqvFSR0S_4-27" vertex="1">
          <mxGeometry width="70" height="30" as="geometry">
            <mxRectangle width="70" height="30" as="alternateBounds" />
          </mxGeometry>
        </mxCell>
        <mxCell id="GycDy_H_GqbqvFSR0S_4-29" value="num_plaza_min" style="shape=partialRectangle;overflow=hidden;connectable=0;fillColor=none;top=0;left=0;bottom=0;right=0;align=left;spacingLeft=6;" parent="GycDy_H_GqbqvFSR0S_4-27" vertex="1">
          <mxGeometry x="70" width="150" height="30" as="geometry">
            <mxRectangle width="150" height="30" as="alternateBounds" />
          </mxGeometry>
        </mxCell>
        <mxCell id="GycDy_H_GqbqvFSR0S_4-117" value="INTEGER" style="shape=partialRectangle;overflow=hidden;connectable=0;fillColor=none;top=0;left=0;bottom=0;right=0;align=left;spacingLeft=6;" parent="GycDy_H_GqbqvFSR0S_4-27" vertex="1">
          <mxGeometry x="220" width="100" height="30" as="geometry">
            <mxRectangle width="100" height="30" as="alternateBounds" />
          </mxGeometry>
        </mxCell>
        <mxCell id="GycDy_H_GqbqvFSR0S_4-30" style="shape=partialRectangle;collapsible=0;dropTarget=0;pointerEvents=0;fillColor=none;points=[[0,0.5],[1,0.5]];portConstraint=eastwest;top=0;left=0;right=0;bottom=0;" parent="C-vyLk0tnHw3VtMMgP7b-23" vertex="1">
          <mxGeometry y="180" width="320" height="30" as="geometry" />
        </mxCell>
        <mxCell id="GycDy_H_GqbqvFSR0S_4-31" value="NOT NULL" style="shape=partialRectangle;overflow=hidden;connectable=0;fillColor=none;top=0;left=0;bottom=0;right=0;" parent="GycDy_H_GqbqvFSR0S_4-30" vertex="1">
          <mxGeometry width="70" height="30" as="geometry">
            <mxRectangle width="70" height="30" as="alternateBounds" />
          </mxGeometry>
        </mxCell>
        <mxCell id="GycDy_H_GqbqvFSR0S_4-32" value="num_plaza_max" style="shape=partialRectangle;overflow=hidden;connectable=0;fillColor=none;top=0;left=0;bottom=0;right=0;align=left;spacingLeft=6;" parent="GycDy_H_GqbqvFSR0S_4-30" vertex="1">
          <mxGeometry x="70" width="150" height="30" as="geometry">
            <mxRectangle width="150" height="30" as="alternateBounds" />
          </mxGeometry>
        </mxCell>
        <mxCell id="GycDy_H_GqbqvFSR0S_4-118" value="INTEGER" style="shape=partialRectangle;overflow=hidden;connectable=0;fillColor=none;top=0;left=0;bottom=0;right=0;align=left;spacingLeft=6;" parent="GycDy_H_GqbqvFSR0S_4-30" vertex="1">
          <mxGeometry x="220" width="100" height="30" as="geometry">
            <mxRectangle width="100" height="30" as="alternateBounds" />
          </mxGeometry>
        </mxCell>
        <mxCell id="GycDy_H_GqbqvFSR0S_4-33" style="shape=partialRectangle;collapsible=0;dropTarget=0;pointerEvents=0;fillColor=none;points=[[0,0.5],[1,0.5]];portConstraint=eastwest;top=0;left=0;right=0;bottom=0;" parent="C-vyLk0tnHw3VtMMgP7b-23" vertex="1">
          <mxGeometry y="210" width="320" height="30" as="geometry" />
        </mxCell>
        <mxCell id="GycDy_H_GqbqvFSR0S_4-34" value="NOT NULL" style="shape=partialRectangle;overflow=hidden;connectable=0;fillColor=none;top=0;left=0;bottom=0;right=0;" parent="GycDy_H_GqbqvFSR0S_4-33" vertex="1">
          <mxGeometry width="70" height="30" as="geometry">
            <mxRectangle width="70" height="30" as="alternateBounds" />
          </mxGeometry>
        </mxCell>
        <mxCell id="GycDy_H_GqbqvFSR0S_4-35" value="num_precio_noche" style="shape=partialRectangle;overflow=hidden;connectable=0;fillColor=none;top=0;left=0;bottom=0;right=0;align=left;spacingLeft=6;" parent="GycDy_H_GqbqvFSR0S_4-33" vertex="1">
          <mxGeometry x="70" width="150" height="30" as="geometry">
            <mxRectangle width="150" height="30" as="alternateBounds" />
          </mxGeometry>
        </mxCell>
        <mxCell id="GycDy_H_GqbqvFSR0S_4-119" value="DOUBLE" style="shape=partialRectangle;overflow=hidden;connectable=0;fillColor=none;top=0;left=0;bottom=0;right=0;align=left;spacingLeft=6;" parent="GycDy_H_GqbqvFSR0S_4-33" vertex="1">
          <mxGeometry x="220" width="100" height="30" as="geometry">
            <mxRectangle width="100" height="30" as="alternateBounds" />
          </mxGeometry>
        </mxCell>
        <mxCell id="GycDy_H_GqbqvFSR0S_4-153" value="Usuario" style="shape=table;startSize=30;container=1;collapsible=1;childLayout=tableLayout;fixedRows=1;rowLines=0;fontStyle=1;align=center;resizeLast=1;" parent="1" vertex="1">
          <mxGeometry x="800" y="120" width="290" height="300" as="geometry">
            <mxRectangle x="120" y="120" width="100" height="30" as="alternateBounds" />
          </mxGeometry>
        </mxCell>
        <mxCell id="GycDy_H_GqbqvFSR0S_4-154" style="shape=partialRectangle;collapsible=0;dropTarget=0;pointerEvents=0;fillColor=none;points=[[0,0.5],[1,0.5]];portConstraint=eastwest;top=0;left=0;right=0;bottom=0;" parent="GycDy_H_GqbqvFSR0S_4-153" vertex="1">
          <mxGeometry y="30" width="290" height="30" as="geometry" />
        </mxCell>
        <mxCell id="GycDy_H_GqbqvFSR0S_4-155" value="PK" style="shape=partialRectangle;overflow=hidden;connectable=0;fillColor=none;top=0;left=0;bottom=0;right=0;fontStyle=1;" parent="GycDy_H_GqbqvFSR0S_4-154" vertex="1">
          <mxGeometry width="70" height="30" as="geometry">
            <mxRectangle width="70" height="30" as="alternateBounds" />
          </mxGeometry>
        </mxCell>
        <mxCell id="GycDy_H_GqbqvFSR0S_4-156" value="id_usuario" style="shape=partialRectangle;overflow=hidden;connectable=0;fillColor=none;top=0;left=0;bottom=0;right=0;align=left;spacingLeft=6;fontStyle=5;labelBorderColor=none;" parent="GycDy_H_GqbqvFSR0S_4-154" vertex="1">
          <mxGeometry x="70" width="120" height="30" as="geometry">
            <mxRectangle width="120" height="30" as="alternateBounds" />
          </mxGeometry>
        </mxCell>
        <mxCell id="GycDy_H_GqbqvFSR0S_4-157" value="BIGINT" style="shape=partialRectangle;overflow=hidden;connectable=0;fillColor=none;top=0;left=0;bottom=0;right=0;align=left;spacingLeft=6;fontStyle=0;labelBorderColor=none;" parent="GycDy_H_GqbqvFSR0S_4-154" vertex="1">
          <mxGeometry x="190" width="100" height="30" as="geometry">
            <mxRectangle width="100" height="30" as="alternateBounds" />
          </mxGeometry>
        </mxCell>
        <mxCell id="GycDy_H_GqbqvFSR0S_4-162" style="shape=partialRectangle;collapsible=0;dropTarget=0;pointerEvents=0;fillColor=none;points=[[0,0.5],[1,0.5]];portConstraint=eastwest;top=0;left=0;right=0;bottom=1;" parent="GycDy_H_GqbqvFSR0S_4-153" vertex="1">
          <mxGeometry y="60" width="290" height="30" as="geometry" />
        </mxCell>
        <mxCell id="GycDy_H_GqbqvFSR0S_4-163" value="FK" style="shape=partialRectangle;overflow=hidden;connectable=0;fillColor=none;top=0;left=0;bottom=0;right=0;fontStyle=1;" parent="GycDy_H_GqbqvFSR0S_4-162" vertex="1">
          <mxGeometry width="70" height="30" as="geometry">
            <mxRectangle width="70" height="30" as="alternateBounds" />
          </mxGeometry>
        </mxCell>
        <mxCell id="GycDy_H_GqbqvFSR0S_4-164" value="id_perfil" style="shape=partialRectangle;overflow=hidden;connectable=0;fillColor=none;top=0;left=0;bottom=0;right=0;align=left;spacingLeft=6;fontStyle=0;labelBorderColor=none;" parent="GycDy_H_GqbqvFSR0S_4-162" vertex="1">
          <mxGeometry x="70" width="120" height="30" as="geometry">
            <mxRectangle width="120" height="30" as="alternateBounds" />
          </mxGeometry>
        </mxCell>
        <mxCell id="GycDy_H_GqbqvFSR0S_4-165" value="BIGINT" style="shape=partialRectangle;overflow=hidden;connectable=0;fillColor=none;top=0;left=0;bottom=0;right=0;align=left;spacingLeft=6;fontStyle=0;labelBorderColor=none;" parent="GycDy_H_GqbqvFSR0S_4-162" vertex="1">
          <mxGeometry x="190" width="100" height="30" as="geometry">
            <mxRectangle width="100" height="30" as="alternateBounds" />
          </mxGeometry>
        </mxCell>
        <mxCell id="GycDy_H_GqbqvFSR0S_4-166" value="" style="shape=partialRectangle;collapsible=0;dropTarget=0;pointerEvents=0;fillColor=none;points=[[0,0.5],[1,0.5]];portConstraint=eastwest;top=0;left=0;right=0;bottom=0;" parent="GycDy_H_GqbqvFSR0S_4-153" vertex="1">
          <mxGeometry y="90" width="290" height="30" as="geometry" />
        </mxCell>
        <mxCell id="GycDy_H_GqbqvFSR0S_4-167" value="NOT NULL,&#xa;UNIQUE" style="shape=partialRectangle;overflow=hidden;connectable=0;fillColor=none;top=0;left=0;bottom=0;right=0;" parent="GycDy_H_GqbqvFSR0S_4-166" vertex="1">
          <mxGeometry width="70" height="30" as="geometry">
            <mxRectangle width="70" height="30" as="alternateBounds" />
          </mxGeometry>
        </mxCell>
        <mxCell id="GycDy_H_GqbqvFSR0S_4-168" value="txt_nombre_usuario" style="shape=partialRectangle;overflow=hidden;connectable=0;fillColor=none;top=0;left=0;bottom=0;right=0;align=left;spacingLeft=6;" parent="GycDy_H_GqbqvFSR0S_4-166" vertex="1">
          <mxGeometry x="70" width="120" height="30" as="geometry">
            <mxRectangle width="120" height="30" as="alternateBounds" />
          </mxGeometry>
        </mxCell>
        <mxCell id="GycDy_H_GqbqvFSR0S_4-169" value="VARCHAR(15)" style="shape=partialRectangle;overflow=hidden;connectable=0;fillColor=none;top=0;left=0;bottom=0;right=0;align=left;spacingLeft=6;" parent="GycDy_H_GqbqvFSR0S_4-166" vertex="1">
          <mxGeometry x="190" width="100" height="30" as="geometry">
            <mxRectangle width="100" height="30" as="alternateBounds" />
          </mxGeometry>
        </mxCell>
        <mxCell id="GycDy_H_GqbqvFSR0S_4-170" style="shape=partialRectangle;collapsible=0;dropTarget=0;pointerEvents=0;fillColor=none;points=[[0,0.5],[1,0.5]];portConstraint=eastwest;top=0;left=0;right=0;bottom=0;" parent="GycDy_H_GqbqvFSR0S_4-153" vertex="1">
          <mxGeometry y="120" width="290" height="30" as="geometry" />
        </mxCell>
        <mxCell id="GycDy_H_GqbqvFSR0S_4-171" value="" style="shape=partialRectangle;overflow=hidden;connectable=0;fillColor=none;top=0;left=0;bottom=0;right=0;" parent="GycDy_H_GqbqvFSR0S_4-170" vertex="1">
          <mxGeometry width="70" height="30" as="geometry">
            <mxRectangle width="70" height="30" as="alternateBounds" />
          </mxGeometry>
        </mxCell>
        <mxCell id="GycDy_H_GqbqvFSR0S_4-172" value="txt_descripcion" style="shape=partialRectangle;overflow=hidden;connectable=0;fillColor=none;top=0;left=0;bottom=0;right=0;align=left;spacingLeft=6;" parent="GycDy_H_GqbqvFSR0S_4-170" vertex="1">
          <mxGeometry x="70" width="120" height="30" as="geometry">
            <mxRectangle width="120" height="30" as="alternateBounds" />
          </mxGeometry>
        </mxCell>
        <mxCell id="GycDy_H_GqbqvFSR0S_4-173" value="VARCHAR(255)" style="shape=partialRectangle;overflow=hidden;connectable=0;fillColor=none;top=0;left=0;bottom=0;right=0;align=left;spacingLeft=6;" parent="GycDy_H_GqbqvFSR0S_4-170" vertex="1">
          <mxGeometry x="190" width="100" height="30" as="geometry">
            <mxRectangle width="100" height="30" as="alternateBounds" />
          </mxGeometry>
        </mxCell>
        <mxCell id="GycDy_H_GqbqvFSR0S_4-174" style="shape=partialRectangle;collapsible=0;dropTarget=0;pointerEvents=0;fillColor=none;points=[[0,0.5],[1,0.5]];portConstraint=eastwest;top=0;left=0;right=0;bottom=0;" parent="GycDy_H_GqbqvFSR0S_4-153" vertex="1">
          <mxGeometry y="150" width="290" height="30" as="geometry" />
        </mxCell>
        <mxCell id="GycDy_H_GqbqvFSR0S_4-175" value="NOT NULL,&#xa;UNIQUE" style="shape=partialRectangle;overflow=hidden;connectable=0;fillColor=none;top=0;left=0;bottom=0;right=0;" parent="GycDy_H_GqbqvFSR0S_4-174" vertex="1">
          <mxGeometry width="70" height="30" as="geometry">
            <mxRectangle width="70" height="30" as="alternateBounds" />
          </mxGeometry>
        </mxCell>
        <mxCell id="GycDy_H_GqbqvFSR0S_4-176" value="txt_dni" style="shape=partialRectangle;overflow=hidden;connectable=0;fillColor=none;top=0;left=0;bottom=0;right=0;align=left;spacingLeft=6;" parent="GycDy_H_GqbqvFSR0S_4-174" vertex="1">
          <mxGeometry x="70" width="120" height="30" as="geometry">
            <mxRectangle width="120" height="30" as="alternateBounds" />
          </mxGeometry>
        </mxCell>
        <mxCell id="GycDy_H_GqbqvFSR0S_4-177" value="VARCHAR(9)" style="shape=partialRectangle;overflow=hidden;connectable=0;fillColor=none;top=0;left=0;bottom=0;right=0;align=left;spacingLeft=6;" parent="GycDy_H_GqbqvFSR0S_4-174" vertex="1">
          <mxGeometry x="190" width="100" height="30" as="geometry">
            <mxRectangle width="100" height="30" as="alternateBounds" />
          </mxGeometry>
        </mxCell>
        <mxCell id="GycDy_H_GqbqvFSR0S_4-178" style="shape=partialRectangle;collapsible=0;dropTarget=0;pointerEvents=0;fillColor=none;points=[[0,0.5],[1,0.5]];portConstraint=eastwest;top=0;left=0;right=0;bottom=0;" parent="GycDy_H_GqbqvFSR0S_4-153" vertex="1">
          <mxGeometry y="180" width="290" height="30" as="geometry" />
        </mxCell>
        <mxCell id="GycDy_H_GqbqvFSR0S_4-179" value="NOT NULL,&#xa;UNIQUE" style="shape=partialRectangle;overflow=hidden;connectable=0;fillColor=none;top=0;left=0;bottom=0;right=0;" parent="GycDy_H_GqbqvFSR0S_4-178" vertex="1">
          <mxGeometry width="70" height="30" as="geometry">
            <mxRectangle width="70" height="30" as="alternateBounds" />
          </mxGeometry>
        </mxCell>
        <mxCell id="GycDy_H_GqbqvFSR0S_4-180" value="num_telefono" style="shape=partialRectangle;overflow=hidden;connectable=0;fillColor=none;top=0;left=0;bottom=0;right=0;align=left;spacingLeft=6;" parent="GycDy_H_GqbqvFSR0S_4-178" vertex="1">
          <mxGeometry x="70" width="120" height="30" as="geometry">
            <mxRectangle width="120" height="30" as="alternateBounds" />
          </mxGeometry>
        </mxCell>
        <mxCell id="GycDy_H_GqbqvFSR0S_4-181" value="INTEGER" style="shape=partialRectangle;overflow=hidden;connectable=0;fillColor=none;top=0;left=0;bottom=0;right=0;align=left;spacingLeft=6;" parent="GycDy_H_GqbqvFSR0S_4-178" vertex="1">
          <mxGeometry x="190" width="100" height="30" as="geometry">
            <mxRectangle width="100" height="30" as="alternateBounds" />
          </mxGeometry>
        </mxCell>
        <mxCell id="GycDy_H_GqbqvFSR0S_4-182" style="shape=partialRectangle;collapsible=0;dropTarget=0;pointerEvents=0;fillColor=none;points=[[0,0.5],[1,0.5]];portConstraint=eastwest;top=0;left=0;right=0;bottom=0;" parent="GycDy_H_GqbqvFSR0S_4-153" vertex="1">
          <mxGeometry y="210" width="290" height="30" as="geometry" />
        </mxCell>
        <mxCell id="GycDy_H_GqbqvFSR0S_4-183" value="NOT NULL,&#xa;UNIQUE" style="shape=partialRectangle;overflow=hidden;connectable=0;fillColor=none;top=0;left=0;bottom=0;right=0;" parent="GycDy_H_GqbqvFSR0S_4-182" vertex="1">
          <mxGeometry width="70" height="30" as="geometry">
            <mxRectangle width="70" height="30" as="alternateBounds" />
          </mxGeometry>
        </mxCell>
        <mxCell id="GycDy_H_GqbqvFSR0S_4-184" value="txt_email" style="shape=partialRectangle;overflow=hidden;connectable=0;fillColor=none;top=0;left=0;bottom=0;right=0;align=left;spacingLeft=6;" parent="GycDy_H_GqbqvFSR0S_4-182" vertex="1">
          <mxGeometry x="70" width="120" height="30" as="geometry">
            <mxRectangle width="120" height="30" as="alternateBounds" />
          </mxGeometry>
        </mxCell>
        <mxCell id="GycDy_H_GqbqvFSR0S_4-185" value="VARCHAR(255)" style="shape=partialRectangle;overflow=hidden;connectable=0;fillColor=none;top=0;left=0;bottom=0;right=0;align=left;spacingLeft=6;" parent="GycDy_H_GqbqvFSR0S_4-182" vertex="1">
          <mxGeometry x="190" width="100" height="30" as="geometry">
            <mxRectangle width="100" height="30" as="alternateBounds" />
          </mxGeometry>
        </mxCell>
        <mxCell id="GycDy_H_GqbqvFSR0S_4-186" style="shape=partialRectangle;collapsible=0;dropTarget=0;pointerEvents=0;fillColor=none;points=[[0,0.5],[1,0.5]];portConstraint=eastwest;top=0;left=0;right=0;bottom=0;" parent="GycDy_H_GqbqvFSR0S_4-153" vertex="1">
          <mxGeometry y="240" width="290" height="30" as="geometry" />
        </mxCell>
        <mxCell id="GycDy_H_GqbqvFSR0S_4-187" value="NOT NULL" style="shape=partialRectangle;overflow=hidden;connectable=0;fillColor=none;top=0;left=0;bottom=0;right=0;" parent="GycDy_H_GqbqvFSR0S_4-186" vertex="1">
          <mxGeometry width="70" height="30" as="geometry">
            <mxRectangle width="70" height="30" as="alternateBounds" />
          </mxGeometry>
        </mxCell>
        <mxCell id="GycDy_H_GqbqvFSR0S_4-188" value="txt_password" style="shape=partialRectangle;overflow=hidden;connectable=0;fillColor=none;top=0;left=0;bottom=0;right=0;align=left;spacingLeft=6;" parent="GycDy_H_GqbqvFSR0S_4-186" vertex="1">
          <mxGeometry x="70" width="120" height="30" as="geometry">
            <mxRectangle width="120" height="30" as="alternateBounds" />
          </mxGeometry>
        </mxCell>
        <mxCell id="GycDy_H_GqbqvFSR0S_4-189" value="VARCHAR(20)" style="shape=partialRectangle;overflow=hidden;connectable=0;fillColor=none;top=0;left=0;bottom=0;right=0;align=left;spacingLeft=6;" parent="GycDy_H_GqbqvFSR0S_4-186" vertex="1">
          <mxGeometry x="190" width="100" height="30" as="geometry">
            <mxRectangle width="100" height="30" as="alternateBounds" />
          </mxGeometry>
        </mxCell>
        <mxCell id="zKk8DtGRspPrTgN_xNA7-56" style="shape=partialRectangle;collapsible=0;dropTarget=0;pointerEvents=0;fillColor=none;points=[[0,0.5],[1,0.5]];portConstraint=eastwest;top=0;left=0;right=0;bottom=0;" vertex="1" parent="GycDy_H_GqbqvFSR0S_4-153">
          <mxGeometry y="270" width="290" height="30" as="geometry" />
        </mxCell>
        <mxCell id="zKk8DtGRspPrTgN_xNA7-57" style="shape=partialRectangle;overflow=hidden;connectable=0;fillColor=none;top=0;left=0;bottom=0;right=0;" vertex="1" parent="zKk8DtGRspPrTgN_xNA7-56">
          <mxGeometry width="70" height="30" as="geometry">
            <mxRectangle width="70" height="30" as="alternateBounds" />
          </mxGeometry>
        </mxCell>
        <mxCell id="zKk8DtGRspPrTgN_xNA7-58" value="datos_imagen_usuario" style="shape=partialRectangle;overflow=hidden;connectable=0;fillColor=none;top=0;left=0;bottom=0;right=0;align=left;spacingLeft=6;fontSize=10.6;" vertex="1" parent="zKk8DtGRspPrTgN_xNA7-56">
          <mxGeometry x="70" width="120" height="30" as="geometry">
            <mxRectangle width="120" height="30" as="alternateBounds" />
          </mxGeometry>
        </mxCell>
        <mxCell id="zKk8DtGRspPrTgN_xNA7-59" value="BLOB(64000)" style="shape=partialRectangle;overflow=hidden;connectable=0;fillColor=none;top=0;left=0;bottom=0;right=0;align=left;spacingLeft=6;" vertex="1" parent="zKk8DtGRspPrTgN_xNA7-56">
          <mxGeometry x="190" width="100" height="30" as="geometry">
            <mxRectangle width="100" height="30" as="alternateBounds" />
          </mxGeometry>
        </mxCell>
        <mxCell id="GycDy_H_GqbqvFSR0S_4-194" value="Perfil" style="shape=table;startSize=30;container=1;collapsible=1;childLayout=tableLayout;fixedRows=1;rowLines=0;fontStyle=1;align=center;resizeLast=1;" parent="1" vertex="1">
          <mxGeometry x="1230" y="200" width="250" height="120" as="geometry">
            <mxRectangle x="120" y="120" width="100" height="30" as="alternateBounds" />
          </mxGeometry>
        </mxCell>
        <mxCell id="GycDy_H_GqbqvFSR0S_4-199" style="shape=partialRectangle;collapsible=0;dropTarget=0;pointerEvents=0;fillColor=none;points=[[0,0.5],[1,0.5]];portConstraint=eastwest;top=0;left=0;right=0;bottom=1;" parent="GycDy_H_GqbqvFSR0S_4-194" vertex="1">
          <mxGeometry y="30" width="250" height="30" as="geometry" />
        </mxCell>
        <mxCell id="GycDy_H_GqbqvFSR0S_4-200" value="PK" style="shape=partialRectangle;overflow=hidden;connectable=0;fillColor=none;top=0;left=0;bottom=0;right=0;fontStyle=1;" parent="GycDy_H_GqbqvFSR0S_4-199" vertex="1">
          <mxGeometry width="70" height="30" as="geometry">
            <mxRectangle width="70" height="30" as="alternateBounds" />
          </mxGeometry>
        </mxCell>
        <mxCell id="GycDy_H_GqbqvFSR0S_4-201" value="id_perfil" style="shape=partialRectangle;overflow=hidden;connectable=0;fillColor=none;top=0;left=0;bottom=0;right=0;align=left;spacingLeft=6;fontStyle=5;labelBorderColor=none;" parent="GycDy_H_GqbqvFSR0S_4-199" vertex="1">
          <mxGeometry x="70" width="80" height="30" as="geometry">
            <mxRectangle width="80" height="30" as="alternateBounds" />
          </mxGeometry>
        </mxCell>
        <mxCell id="GycDy_H_GqbqvFSR0S_4-202" value="BIGINT" style="shape=partialRectangle;overflow=hidden;connectable=0;fillColor=none;top=0;left=0;bottom=0;right=0;align=left;spacingLeft=6;fontStyle=0;labelBorderColor=none;" parent="GycDy_H_GqbqvFSR0S_4-199" vertex="1">
          <mxGeometry x="150" width="100" height="30" as="geometry">
            <mxRectangle width="100" height="30" as="alternateBounds" />
          </mxGeometry>
        </mxCell>
        <mxCell id="GycDy_H_GqbqvFSR0S_4-203" value="" style="shape=partialRectangle;collapsible=0;dropTarget=0;pointerEvents=0;fillColor=none;points=[[0,0.5],[1,0.5]];portConstraint=eastwest;top=0;left=0;right=0;bottom=0;" parent="GycDy_H_GqbqvFSR0S_4-194" vertex="1">
          <mxGeometry y="60" width="250" height="30" as="geometry" />
        </mxCell>
        <mxCell id="GycDy_H_GqbqvFSR0S_4-204" value="NOT NULL,&#xa;UNIQUE" style="shape=partialRectangle;overflow=hidden;connectable=0;fillColor=none;top=0;left=0;bottom=0;right=0;" parent="GycDy_H_GqbqvFSR0S_4-203" vertex="1">
          <mxGeometry width="70" height="30" as="geometry">
            <mxRectangle width="70" height="30" as="alternateBounds" />
          </mxGeometry>
        </mxCell>
        <mxCell id="GycDy_H_GqbqvFSR0S_4-205" value="cod_perfil" style="shape=partialRectangle;overflow=hidden;connectable=0;fillColor=none;top=0;left=0;bottom=0;right=0;align=left;spacingLeft=6;" parent="GycDy_H_GqbqvFSR0S_4-203" vertex="1">
          <mxGeometry x="70" width="80" height="30" as="geometry">
            <mxRectangle width="80" height="30" as="alternateBounds" />
          </mxGeometry>
        </mxCell>
        <mxCell id="GycDy_H_GqbqvFSR0S_4-206" value="VARCHAR(50)" style="shape=partialRectangle;overflow=hidden;connectable=0;fillColor=none;top=0;left=0;bottom=0;right=0;align=left;spacingLeft=6;" parent="GycDy_H_GqbqvFSR0S_4-203" vertex="1">
          <mxGeometry x="150" width="100" height="30" as="geometry">
            <mxRectangle width="100" height="30" as="alternateBounds" />
          </mxGeometry>
        </mxCell>
        <mxCell id="GycDy_H_GqbqvFSR0S_4-207" style="shape=partialRectangle;collapsible=0;dropTarget=0;pointerEvents=0;fillColor=none;points=[[0,0.5],[1,0.5]];portConstraint=eastwest;top=0;left=0;right=0;bottom=0;" parent="GycDy_H_GqbqvFSR0S_4-194" vertex="1">
          <mxGeometry y="90" width="250" height="30" as="geometry" />
        </mxCell>
        <mxCell id="GycDy_H_GqbqvFSR0S_4-208" value="NOT NULL" style="shape=partialRectangle;overflow=hidden;connectable=0;fillColor=none;top=0;left=0;bottom=0;right=0;" parent="GycDy_H_GqbqvFSR0S_4-207" vertex="1">
          <mxGeometry width="70" height="30" as="geometry">
            <mxRectangle width="70" height="30" as="alternateBounds" />
          </mxGeometry>
        </mxCell>
        <mxCell id="GycDy_H_GqbqvFSR0S_4-209" value="txt_perfil" style="shape=partialRectangle;overflow=hidden;connectable=0;fillColor=none;top=0;left=0;bottom=0;right=0;align=left;spacingLeft=6;" parent="GycDy_H_GqbqvFSR0S_4-207" vertex="1">
          <mxGeometry x="70" width="80" height="30" as="geometry">
            <mxRectangle width="80" height="30" as="alternateBounds" />
          </mxGeometry>
        </mxCell>
        <mxCell id="GycDy_H_GqbqvFSR0S_4-210" value="VARCHAR(255)" style="shape=partialRectangle;overflow=hidden;connectable=0;fillColor=none;top=0;left=0;bottom=0;right=0;align=left;spacingLeft=6;" parent="GycDy_H_GqbqvFSR0S_4-207" vertex="1">
          <mxGeometry x="150" width="100" height="30" as="geometry">
            <mxRectangle width="100" height="30" as="alternateBounds" />
          </mxGeometry>
        </mxCell>
        <mxCell id="GycDy_H_GqbqvFSR0S_4-227" value="Alquiler_alojamiento" style="shape=table;startSize=30;container=1;collapsible=1;childLayout=tableLayout;fixedRows=1;rowLines=0;fontStyle=1;align=center;resizeLast=1;" parent="1" vertex="1">
          <mxGeometry x="305" y="135" width="345" height="240" as="geometry">
            <mxRectangle x="120" y="120" width="100" height="30" as="alternateBounds" />
          </mxGeometry>
        </mxCell>
        <mxCell id="GycDy_H_GqbqvFSR0S_4-260" style="shape=partialRectangle;collapsible=0;dropTarget=0;pointerEvents=0;fillColor=none;points=[[0,0.5],[1,0.5]];portConstraint=eastwest;top=0;left=0;right=0;bottom=0;" parent="GycDy_H_GqbqvFSR0S_4-227" vertex="1">
          <mxGeometry y="30" width="345" height="30" as="geometry" />
        </mxCell>
        <mxCell id="GycDy_H_GqbqvFSR0S_4-261" value="PK" style="shape=partialRectangle;overflow=hidden;connectable=0;fillColor=none;top=0;left=0;bottom=0;right=0;fontStyle=1;" parent="GycDy_H_GqbqvFSR0S_4-260" vertex="1">
          <mxGeometry width="70" height="30" as="geometry">
            <mxRectangle width="70" height="30" as="alternateBounds" />
          </mxGeometry>
        </mxCell>
        <mxCell id="GycDy_H_GqbqvFSR0S_4-262" value="id_alquiler_alojamiento" style="shape=partialRectangle;overflow=hidden;connectable=0;fillColor=none;top=0;left=0;bottom=0;right=0;align=left;spacingLeft=6;fontStyle=5;labelBorderColor=none;" parent="GycDy_H_GqbqvFSR0S_4-260" vertex="1">
          <mxGeometry x="70" width="175" height="30" as="geometry">
            <mxRectangle width="175" height="30" as="alternateBounds" />
          </mxGeometry>
        </mxCell>
        <mxCell id="GycDy_H_GqbqvFSR0S_4-263" value="BIGINT" style="shape=partialRectangle;overflow=hidden;connectable=0;fillColor=none;top=0;left=0;bottom=0;right=0;align=left;spacingLeft=6;fontStyle=0;labelBorderColor=none;" parent="GycDy_H_GqbqvFSR0S_4-260" vertex="1">
          <mxGeometry x="245" width="100" height="30" as="geometry">
            <mxRectangle width="100" height="30" as="alternateBounds" />
          </mxGeometry>
        </mxCell>
        <mxCell id="GycDy_H_GqbqvFSR0S_4-228" style="shape=partialRectangle;collapsible=0;dropTarget=0;pointerEvents=0;fillColor=none;points=[[0,0.5],[1,0.5]];portConstraint=eastwest;top=0;left=0;right=0;bottom=0;" parent="GycDy_H_GqbqvFSR0S_4-227" vertex="1">
          <mxGeometry y="60" width="345" height="30" as="geometry" />
        </mxCell>
        <mxCell id="GycDy_H_GqbqvFSR0S_4-229" value="FK" style="shape=partialRectangle;overflow=hidden;connectable=0;fillColor=none;top=0;left=0;bottom=0;right=0;fontStyle=1;" parent="GycDy_H_GqbqvFSR0S_4-228" vertex="1">
          <mxGeometry width="70" height="30" as="geometry">
            <mxRectangle width="70" height="30" as="alternateBounds" />
          </mxGeometry>
        </mxCell>
        <mxCell id="GycDy_H_GqbqvFSR0S_4-230" value="id_alojamiento" style="shape=partialRectangle;overflow=hidden;connectable=0;fillColor=none;top=0;left=0;bottom=0;right=0;align=left;spacingLeft=6;fontStyle=0;labelBorderColor=none;" parent="GycDy_H_GqbqvFSR0S_4-228" vertex="1">
          <mxGeometry x="70" width="175" height="30" as="geometry">
            <mxRectangle width="175" height="30" as="alternateBounds" />
          </mxGeometry>
        </mxCell>
        <mxCell id="GycDy_H_GqbqvFSR0S_4-231" value="BIGINT" style="shape=partialRectangle;overflow=hidden;connectable=0;fillColor=none;top=0;left=0;bottom=0;right=0;align=left;spacingLeft=6;fontStyle=0;labelBorderColor=none;" parent="GycDy_H_GqbqvFSR0S_4-228" vertex="1">
          <mxGeometry x="245" width="100" height="30" as="geometry">
            <mxRectangle width="100" height="30" as="alternateBounds" />
          </mxGeometry>
        </mxCell>
        <mxCell id="GycDy_H_GqbqvFSR0S_4-232" style="shape=partialRectangle;collapsible=0;dropTarget=0;pointerEvents=0;fillColor=none;points=[[0,0.5],[1,0.5]];portConstraint=eastwest;top=0;left=0;right=0;bottom=1;" parent="GycDy_H_GqbqvFSR0S_4-227" vertex="1">
          <mxGeometry y="90" width="345" height="30" as="geometry" />
        </mxCell>
        <mxCell id="GycDy_H_GqbqvFSR0S_4-233" value="FK" style="shape=partialRectangle;overflow=hidden;connectable=0;fillColor=none;top=0;left=0;bottom=0;right=0;fontStyle=1;" parent="GycDy_H_GqbqvFSR0S_4-232" vertex="1">
          <mxGeometry width="70" height="30" as="geometry">
            <mxRectangle width="70" height="30" as="alternateBounds" />
          </mxGeometry>
        </mxCell>
        <mxCell id="GycDy_H_GqbqvFSR0S_4-234" value="id_usuario" style="shape=partialRectangle;overflow=hidden;connectable=0;fillColor=none;top=0;left=0;bottom=0;right=0;align=left;spacingLeft=6;fontStyle=0;labelBorderColor=none;" parent="GycDy_H_GqbqvFSR0S_4-232" vertex="1">
          <mxGeometry x="70" width="175" height="30" as="geometry">
            <mxRectangle width="175" height="30" as="alternateBounds" />
          </mxGeometry>
        </mxCell>
        <mxCell id="GycDy_H_GqbqvFSR0S_4-235" value="BIGINT" style="shape=partialRectangle;overflow=hidden;connectable=0;fillColor=none;top=0;left=0;bottom=0;right=0;align=left;spacingLeft=6;fontStyle=0;labelBorderColor=none;" parent="GycDy_H_GqbqvFSR0S_4-232" vertex="1">
          <mxGeometry x="245" width="100" height="30" as="geometry">
            <mxRectangle width="100" height="30" as="alternateBounds" />
          </mxGeometry>
        </mxCell>
        <mxCell id="GycDy_H_GqbqvFSR0S_4-236" value="" style="shape=partialRectangle;collapsible=0;dropTarget=0;pointerEvents=0;fillColor=none;points=[[0,0.5],[1,0.5]];portConstraint=eastwest;top=0;left=0;right=0;bottom=0;" parent="GycDy_H_GqbqvFSR0S_4-227" vertex="1">
          <mxGeometry y="120" width="345" height="30" as="geometry" />
        </mxCell>
        <mxCell id="GycDy_H_GqbqvFSR0S_4-237" value="NOT NULL" style="shape=partialRectangle;overflow=hidden;connectable=0;fillColor=none;top=0;left=0;bottom=0;right=0;" parent="GycDy_H_GqbqvFSR0S_4-236" vertex="1">
          <mxGeometry width="70" height="30" as="geometry">
            <mxRectangle width="70" height="30" as="alternateBounds" />
          </mxGeometry>
        </mxCell>
        <mxCell id="GycDy_H_GqbqvFSR0S_4-238" value="fecha_inicio_alquiler" style="shape=partialRectangle;overflow=hidden;connectable=0;fillColor=none;top=0;left=0;bottom=0;right=0;align=left;spacingLeft=6;" parent="GycDy_H_GqbqvFSR0S_4-236" vertex="1">
          <mxGeometry x="70" width="175" height="30" as="geometry">
            <mxRectangle width="175" height="30" as="alternateBounds" />
          </mxGeometry>
        </mxCell>
        <mxCell id="GycDy_H_GqbqvFSR0S_4-239" value="DATE" style="shape=partialRectangle;overflow=hidden;connectable=0;fillColor=none;top=0;left=0;bottom=0;right=0;align=left;spacingLeft=6;" parent="GycDy_H_GqbqvFSR0S_4-236" vertex="1">
          <mxGeometry x="245" width="100" height="30" as="geometry">
            <mxRectangle width="100" height="30" as="alternateBounds" />
          </mxGeometry>
        </mxCell>
        <mxCell id="GycDy_H_GqbqvFSR0S_4-240" style="shape=partialRectangle;collapsible=0;dropTarget=0;pointerEvents=0;fillColor=none;points=[[0,0.5],[1,0.5]];portConstraint=eastwest;top=0;left=0;right=0;bottom=0;" parent="GycDy_H_GqbqvFSR0S_4-227" vertex="1">
          <mxGeometry y="150" width="345" height="30" as="geometry" />
        </mxCell>
        <mxCell id="GycDy_H_GqbqvFSR0S_4-241" value="NOT NULL" style="shape=partialRectangle;overflow=hidden;connectable=0;fillColor=none;top=0;left=0;bottom=0;right=0;" parent="GycDy_H_GqbqvFSR0S_4-240" vertex="1">
          <mxGeometry width="70" height="30" as="geometry">
            <mxRectangle width="70" height="30" as="alternateBounds" />
          </mxGeometry>
        </mxCell>
        <mxCell id="GycDy_H_GqbqvFSR0S_4-242" value="fecha_fin_alquiler" style="shape=partialRectangle;overflow=hidden;connectable=0;fillColor=none;top=0;left=0;bottom=0;right=0;align=left;spacingLeft=6;" parent="GycDy_H_GqbqvFSR0S_4-240" vertex="1">
          <mxGeometry x="70" width="175" height="30" as="geometry">
            <mxRectangle width="175" height="30" as="alternateBounds" />
          </mxGeometry>
        </mxCell>
        <mxCell id="GycDy_H_GqbqvFSR0S_4-243" value="DATE" style="shape=partialRectangle;overflow=hidden;connectable=0;fillColor=none;top=0;left=0;bottom=0;right=0;align=left;spacingLeft=6;" parent="GycDy_H_GqbqvFSR0S_4-240" vertex="1">
          <mxGeometry x="245" width="100" height="30" as="geometry">
            <mxRectangle width="100" height="30" as="alternateBounds" />
          </mxGeometry>
        </mxCell>
        <mxCell id="GycDy_H_GqbqvFSR0S_4-244" style="shape=partialRectangle;collapsible=0;dropTarget=0;pointerEvents=0;fillColor=none;points=[[0,0.5],[1,0.5]];portConstraint=eastwest;top=0;left=0;right=0;bottom=0;" parent="GycDy_H_GqbqvFSR0S_4-227" vertex="1">
          <mxGeometry y="180" width="345" height="30" as="geometry" />
        </mxCell>
        <mxCell id="GycDy_H_GqbqvFSR0S_4-245" value="NOT NULL" style="shape=partialRectangle;overflow=hidden;connectable=0;fillColor=none;top=0;left=0;bottom=0;right=0;" parent="GycDy_H_GqbqvFSR0S_4-244" vertex="1">
          <mxGeometry width="70" height="30" as="geometry">
            <mxRectangle width="70" height="30" as="alternateBounds" />
          </mxGeometry>
        </mxCell>
        <mxCell id="GycDy_H_GqbqvFSR0S_4-246" value="precio_total_alquiler" style="shape=partialRectangle;overflow=hidden;connectable=0;fillColor=none;top=0;left=0;bottom=0;right=0;align=left;spacingLeft=6;" parent="GycDy_H_GqbqvFSR0S_4-244" vertex="1">
          <mxGeometry x="70" width="175" height="30" as="geometry">
            <mxRectangle width="175" height="30" as="alternateBounds" />
          </mxGeometry>
        </mxCell>
        <mxCell id="GycDy_H_GqbqvFSR0S_4-247" value="DOUBLE" style="shape=partialRectangle;overflow=hidden;connectable=0;fillColor=none;top=0;left=0;bottom=0;right=0;align=left;spacingLeft=6;" parent="GycDy_H_GqbqvFSR0S_4-244" vertex="1">
          <mxGeometry x="245" width="100" height="30" as="geometry">
            <mxRectangle width="100" height="30" as="alternateBounds" />
          </mxGeometry>
        </mxCell>
        <mxCell id="GycDy_H_GqbqvFSR0S_4-248" style="shape=partialRectangle;collapsible=0;dropTarget=0;pointerEvents=0;fillColor=none;points=[[0,0.5],[1,0.5]];portConstraint=eastwest;top=0;left=0;right=0;bottom=0;" parent="GycDy_H_GqbqvFSR0S_4-227" vertex="1">
          <mxGeometry y="210" width="345" height="30" as="geometry" />
        </mxCell>
        <mxCell id="GycDy_H_GqbqvFSR0S_4-249" value="NOT NULL" style="shape=partialRectangle;overflow=hidden;connectable=0;fillColor=none;top=0;left=0;bottom=0;right=0;" parent="GycDy_H_GqbqvFSR0S_4-248" vertex="1">
          <mxGeometry width="70" height="30" as="geometry">
            <mxRectangle width="70" height="30" as="alternateBounds" />
          </mxGeometry>
        </mxCell>
        <mxCell id="GycDy_H_GqbqvFSR0S_4-250" value="num_plazas_reservadas" style="shape=partialRectangle;overflow=hidden;connectable=0;fillColor=none;top=0;left=0;bottom=0;right=0;align=left;spacingLeft=6;" parent="GycDy_H_GqbqvFSR0S_4-248" vertex="1">
          <mxGeometry x="70" width="175" height="30" as="geometry">
            <mxRectangle width="175" height="30" as="alternateBounds" />
          </mxGeometry>
        </mxCell>
        <mxCell id="GycDy_H_GqbqvFSR0S_4-251" value="INTEGER" style="shape=partialRectangle;overflow=hidden;connectable=0;fillColor=none;top=0;left=0;bottom=0;right=0;align=left;spacingLeft=6;" parent="GycDy_H_GqbqvFSR0S_4-248" vertex="1">
          <mxGeometry x="245" width="100" height="30" as="geometry">
            <mxRectangle width="100" height="30" as="alternateBounds" />
          </mxGeometry>
        </mxCell>
        <mxCell id="GycDy_H_GqbqvFSR0S_4-297" value="Comodidad_alojamiento" style="shape=table;startSize=30;container=1;collapsible=1;childLayout=tableLayout;fixedRows=1;rowLines=0;fontStyle=1;align=center;resizeLast=1;" parent="1" vertex="1">
          <mxGeometry x="1230" y="460" width="345" height="200.00000000000023" as="geometry">
            <mxRectangle x="120" y="120" width="100" height="30" as="alternateBounds" />
          </mxGeometry>
        </mxCell>
        <mxCell id="Tbb08zhZ55a-EsDUvBZ_-12" style="shape=partialRectangle;collapsible=0;dropTarget=0;pointerEvents=0;fillColor=none;points=[[0,0.5],[1,0.5]];portConstraint=eastwest;top=0;left=0;right=0;bottom=0;" parent="GycDy_H_GqbqvFSR0S_4-297" vertex="1">
          <mxGeometry y="30" width="345" height="20" as="geometry" />
        </mxCell>
        <mxCell id="Tbb08zhZ55a-EsDUvBZ_-13" value="PK" style="shape=partialRectangle;overflow=hidden;connectable=0;fillColor=none;top=0;left=0;bottom=0;right=0;fontStyle=1;" parent="Tbb08zhZ55a-EsDUvBZ_-12" vertex="1">
          <mxGeometry width="70" height="20" as="geometry">
            <mxRectangle width="70" height="20" as="alternateBounds" />
          </mxGeometry>
        </mxCell>
        <mxCell id="Tbb08zhZ55a-EsDUvBZ_-14" value="id_comodidad_alojamiento" style="shape=partialRectangle;overflow=hidden;connectable=0;fillColor=none;top=0;left=0;bottom=0;right=0;align=left;spacingLeft=6;fontStyle=5;labelBorderColor=none;" parent="Tbb08zhZ55a-EsDUvBZ_-12" vertex="1">
          <mxGeometry x="70" width="175" height="20" as="geometry">
            <mxRectangle width="175" height="20" as="alternateBounds" />
          </mxGeometry>
        </mxCell>
        <mxCell id="Tbb08zhZ55a-EsDUvBZ_-15" value="BIGINT" style="shape=partialRectangle;overflow=hidden;connectable=0;fillColor=none;top=0;left=0;bottom=0;right=0;align=left;spacingLeft=6;fontStyle=0;labelBorderColor=none;" parent="Tbb08zhZ55a-EsDUvBZ_-12" vertex="1">
          <mxGeometry x="245" width="100" height="20" as="geometry">
            <mxRectangle width="100" height="20" as="alternateBounds" />
          </mxGeometry>
        </mxCell>
        <mxCell id="GycDy_H_GqbqvFSR0S_4-298" style="shape=partialRectangle;collapsible=0;dropTarget=0;pointerEvents=0;fillColor=none;points=[[0,0.5],[1,0.5]];portConstraint=eastwest;top=0;left=0;right=0;bottom=0;" parent="GycDy_H_GqbqvFSR0S_4-297" vertex="1">
          <mxGeometry y="50" width="345" height="30" as="geometry" />
        </mxCell>
        <mxCell id="GycDy_H_GqbqvFSR0S_4-299" value="FK" style="shape=partialRectangle;overflow=hidden;connectable=0;fillColor=none;top=0;left=0;bottom=0;right=0;fontStyle=1;" parent="GycDy_H_GqbqvFSR0S_4-298" vertex="1">
          <mxGeometry width="70" height="30" as="geometry">
            <mxRectangle width="70" height="30" as="alternateBounds" />
          </mxGeometry>
        </mxCell>
        <mxCell id="GycDy_H_GqbqvFSR0S_4-300" value="id_alojamiento" style="shape=partialRectangle;overflow=hidden;connectable=0;fillColor=none;top=0;left=0;bottom=0;right=0;align=left;spacingLeft=6;fontStyle=0;labelBorderColor=none;" parent="GycDy_H_GqbqvFSR0S_4-298" vertex="1">
          <mxGeometry x="70" width="175" height="30" as="geometry">
            <mxRectangle width="175" height="30" as="alternateBounds" />
          </mxGeometry>
        </mxCell>
        <mxCell id="GycDy_H_GqbqvFSR0S_4-301" value="BIGINT" style="shape=partialRectangle;overflow=hidden;connectable=0;fillColor=none;top=0;left=0;bottom=0;right=0;align=left;spacingLeft=6;fontStyle=0;labelBorderColor=none;" parent="GycDy_H_GqbqvFSR0S_4-298" vertex="1">
          <mxGeometry x="245" width="100" height="30" as="geometry">
            <mxRectangle width="100" height="30" as="alternateBounds" />
          </mxGeometry>
        </mxCell>
        <mxCell id="GycDy_H_GqbqvFSR0S_4-306" style="shape=partialRectangle;collapsible=0;dropTarget=0;pointerEvents=0;fillColor=none;points=[[0,0.5],[1,0.5]];portConstraint=eastwest;top=0;left=0;right=0;bottom=1;" parent="GycDy_H_GqbqvFSR0S_4-297" vertex="1">
          <mxGeometry y="80" width="345" height="30" as="geometry" />
        </mxCell>
        <mxCell id="GycDy_H_GqbqvFSR0S_4-307" value="FK" style="shape=partialRectangle;overflow=hidden;connectable=0;fillColor=none;top=0;left=0;bottom=0;right=0;fontStyle=1;" parent="GycDy_H_GqbqvFSR0S_4-306" vertex="1">
          <mxGeometry width="70" height="30" as="geometry">
            <mxRectangle width="70" height="30" as="alternateBounds" />
          </mxGeometry>
        </mxCell>
        <mxCell id="GycDy_H_GqbqvFSR0S_4-308" value="id_tipo_comodidad" style="shape=partialRectangle;overflow=hidden;connectable=0;fillColor=none;top=0;left=0;bottom=0;right=0;align=left;spacingLeft=6;fontStyle=0;labelBorderColor=none;" parent="GycDy_H_GqbqvFSR0S_4-306" vertex="1">
          <mxGeometry x="70" width="175" height="30" as="geometry">
            <mxRectangle width="175" height="30" as="alternateBounds" />
          </mxGeometry>
        </mxCell>
        <mxCell id="GycDy_H_GqbqvFSR0S_4-309" value="BIGINT" style="shape=partialRectangle;overflow=hidden;connectable=0;fillColor=none;top=0;left=0;bottom=0;right=0;align=left;spacingLeft=6;fontStyle=0;labelBorderColor=none;" parent="GycDy_H_GqbqvFSR0S_4-306" vertex="1">
          <mxGeometry x="245" width="100" height="30" as="geometry">
            <mxRectangle width="100" height="30" as="alternateBounds" />
          </mxGeometry>
        </mxCell>
        <mxCell id="GycDy_H_GqbqvFSR0S_4-310" value="" style="shape=partialRectangle;collapsible=0;dropTarget=0;pointerEvents=0;fillColor=none;points=[[0,0.5],[1,0.5]];portConstraint=eastwest;top=0;left=0;right=0;bottom=0;" parent="GycDy_H_GqbqvFSR0S_4-297" vertex="1">
          <mxGeometry y="110" width="345" height="30" as="geometry" />
        </mxCell>
        <mxCell id="GycDy_H_GqbqvFSR0S_4-311" value="NOT NULL,&#xa;UNIQUE" style="shape=partialRectangle;overflow=hidden;connectable=0;fillColor=none;top=0;left=0;bottom=0;right=0;" parent="GycDy_H_GqbqvFSR0S_4-310" vertex="1">
          <mxGeometry width="70" height="30" as="geometry">
            <mxRectangle width="70" height="30" as="alternateBounds" />
          </mxGeometry>
        </mxCell>
        <mxCell id="GycDy_H_GqbqvFSR0S_4-312" value="codigo_comodidad" style="shape=partialRectangle;overflow=hidden;connectable=0;fillColor=none;top=0;left=0;bottom=0;right=0;align=left;spacingLeft=6;" parent="GycDy_H_GqbqvFSR0S_4-310" vertex="1">
          <mxGeometry x="70" width="175" height="30" as="geometry">
            <mxRectangle width="175" height="30" as="alternateBounds" />
          </mxGeometry>
        </mxCell>
        <mxCell id="GycDy_H_GqbqvFSR0S_4-313" value="VARCHAR(50)" style="shape=partialRectangle;overflow=hidden;connectable=0;fillColor=none;top=0;left=0;bottom=0;right=0;align=left;spacingLeft=6;" parent="GycDy_H_GqbqvFSR0S_4-310" vertex="1">
          <mxGeometry x="245" width="100" height="30" as="geometry">
            <mxRectangle width="100" height="30" as="alternateBounds" />
          </mxGeometry>
        </mxCell>
        <mxCell id="GycDy_H_GqbqvFSR0S_4-314" style="shape=partialRectangle;collapsible=0;dropTarget=0;pointerEvents=0;fillColor=none;points=[[0,0.5],[1,0.5]];portConstraint=eastwest;top=0;left=0;right=0;bottom=0;" parent="GycDy_H_GqbqvFSR0S_4-297" vertex="1">
          <mxGeometry y="140" width="345" height="30" as="geometry" />
        </mxCell>
        <mxCell id="GycDy_H_GqbqvFSR0S_4-315" value="NOT NULL" style="shape=partialRectangle;overflow=hidden;connectable=0;fillColor=none;top=0;left=0;bottom=0;right=0;" parent="GycDy_H_GqbqvFSR0S_4-314" vertex="1">
          <mxGeometry width="70" height="30" as="geometry">
            <mxRectangle width="70" height="30" as="alternateBounds" />
          </mxGeometry>
        </mxCell>
        <mxCell id="GycDy_H_GqbqvFSR0S_4-316" value="txt_nombre" style="shape=partialRectangle;overflow=hidden;connectable=0;fillColor=none;top=0;left=0;bottom=0;right=0;align=left;spacingLeft=6;" parent="GycDy_H_GqbqvFSR0S_4-314" vertex="1">
          <mxGeometry x="70" width="175" height="30" as="geometry">
            <mxRectangle width="175" height="30" as="alternateBounds" />
          </mxGeometry>
        </mxCell>
        <mxCell id="GycDy_H_GqbqvFSR0S_4-317" value="VARCHAR(50)" style="shape=partialRectangle;overflow=hidden;connectable=0;fillColor=none;top=0;left=0;bottom=0;right=0;align=left;spacingLeft=6;" parent="GycDy_H_GqbqvFSR0S_4-314" vertex="1">
          <mxGeometry x="245" width="100" height="30" as="geometry">
            <mxRectangle width="100" height="30" as="alternateBounds" />
          </mxGeometry>
        </mxCell>
        <mxCell id="GycDy_H_GqbqvFSR0S_4-318" style="shape=partialRectangle;collapsible=0;dropTarget=0;pointerEvents=0;fillColor=none;points=[[0,0.5],[1,0.5]];portConstraint=eastwest;top=0;left=0;right=0;bottom=0;" parent="GycDy_H_GqbqvFSR0S_4-297" vertex="1">
          <mxGeometry y="170" width="345" height="30" as="geometry" />
        </mxCell>
        <mxCell id="GycDy_H_GqbqvFSR0S_4-319" value="NOT NULL" style="shape=partialRectangle;overflow=hidden;connectable=0;fillColor=none;top=0;left=0;bottom=0;right=0;" parent="GycDy_H_GqbqvFSR0S_4-318" vertex="1">
          <mxGeometry width="70" height="30" as="geometry">
            <mxRectangle width="70" height="30" as="alternateBounds" />
          </mxGeometry>
        </mxCell>
        <mxCell id="GycDy_H_GqbqvFSR0S_4-320" value="txt_descripcion" style="shape=partialRectangle;overflow=hidden;connectable=0;fillColor=none;top=0;left=0;bottom=0;right=0;align=left;spacingLeft=6;" parent="GycDy_H_GqbqvFSR0S_4-318" vertex="1">
          <mxGeometry x="70" width="175" height="30" as="geometry">
            <mxRectangle width="175" height="30" as="alternateBounds" />
          </mxGeometry>
        </mxCell>
        <mxCell id="GycDy_H_GqbqvFSR0S_4-321" value="VARCHAR(255)" style="shape=partialRectangle;overflow=hidden;connectable=0;fillColor=none;top=0;left=0;bottom=0;right=0;align=left;spacingLeft=6;" parent="GycDy_H_GqbqvFSR0S_4-318" vertex="1">
          <mxGeometry x="245" width="100" height="30" as="geometry">
            <mxRectangle width="100" height="30" as="alternateBounds" />
          </mxGeometry>
        </mxCell>
        <mxCell id="GycDy_H_GqbqvFSR0S_4-326" value="Tipo_comodidad" style="shape=table;startSize=30;container=1;collapsible=1;childLayout=tableLayout;fixedRows=1;rowLines=0;fontStyle=1;align=center;resizeLast=1;" parent="1" vertex="1">
          <mxGeometry x="1230" y="870" width="345" height="120.00000000000023" as="geometry">
            <mxRectangle x="120" y="120" width="100" height="30" as="alternateBounds" />
          </mxGeometry>
        </mxCell>
        <mxCell id="GycDy_H_GqbqvFSR0S_4-327" style="shape=partialRectangle;collapsible=0;dropTarget=0;pointerEvents=0;fillColor=none;points=[[0,0.5],[1,0.5]];portConstraint=eastwest;top=0;left=0;right=0;bottom=1;" parent="GycDy_H_GqbqvFSR0S_4-326" vertex="1">
          <mxGeometry y="30" width="345" height="30" as="geometry" />
        </mxCell>
        <mxCell id="GycDy_H_GqbqvFSR0S_4-328" value="PK" style="shape=partialRectangle;overflow=hidden;connectable=0;fillColor=none;top=0;left=0;bottom=0;right=0;fontStyle=1;" parent="GycDy_H_GqbqvFSR0S_4-327" vertex="1">
          <mxGeometry width="70" height="30" as="geometry">
            <mxRectangle width="70" height="30" as="alternateBounds" />
          </mxGeometry>
        </mxCell>
        <mxCell id="GycDy_H_GqbqvFSR0S_4-329" value="id_tipo_comodidad" style="shape=partialRectangle;overflow=hidden;connectable=0;fillColor=none;top=0;left=0;bottom=0;right=0;align=left;spacingLeft=6;fontStyle=5;labelBorderColor=none;" parent="GycDy_H_GqbqvFSR0S_4-327" vertex="1">
          <mxGeometry x="70" width="175" height="30" as="geometry">
            <mxRectangle width="175" height="30" as="alternateBounds" />
          </mxGeometry>
        </mxCell>
        <mxCell id="GycDy_H_GqbqvFSR0S_4-330" value="BIGINT" style="shape=partialRectangle;overflow=hidden;connectable=0;fillColor=none;top=0;left=0;bottom=0;right=0;align=left;spacingLeft=6;fontStyle=0;labelBorderColor=none;" parent="GycDy_H_GqbqvFSR0S_4-327" vertex="1">
          <mxGeometry x="245" width="100" height="30" as="geometry">
            <mxRectangle width="100" height="30" as="alternateBounds" />
          </mxGeometry>
        </mxCell>
        <mxCell id="GycDy_H_GqbqvFSR0S_4-335" value="" style="shape=partialRectangle;collapsible=0;dropTarget=0;pointerEvents=0;fillColor=none;points=[[0,0.5],[1,0.5]];portConstraint=eastwest;top=0;left=0;right=0;bottom=0;" parent="GycDy_H_GqbqvFSR0S_4-326" vertex="1">
          <mxGeometry y="60" width="345" height="30" as="geometry" />
        </mxCell>
        <mxCell id="GycDy_H_GqbqvFSR0S_4-336" value="NOT NULL,&#xa;UNIQUE" style="shape=partialRectangle;overflow=hidden;connectable=0;fillColor=none;top=0;left=0;bottom=0;right=0;" parent="GycDy_H_GqbqvFSR0S_4-335" vertex="1">
          <mxGeometry width="70" height="30" as="geometry">
            <mxRectangle width="70" height="30" as="alternateBounds" />
          </mxGeometry>
        </mxCell>
        <mxCell id="GycDy_H_GqbqvFSR0S_4-337" value="codigo_tipo_comodidad" style="shape=partialRectangle;overflow=hidden;connectable=0;fillColor=none;top=0;left=0;bottom=0;right=0;align=left;spacingLeft=6;" parent="GycDy_H_GqbqvFSR0S_4-335" vertex="1">
          <mxGeometry x="70" width="175" height="30" as="geometry">
            <mxRectangle width="175" height="30" as="alternateBounds" />
          </mxGeometry>
        </mxCell>
        <mxCell id="GycDy_H_GqbqvFSR0S_4-338" value="VARCHAR(50)" style="shape=partialRectangle;overflow=hidden;connectable=0;fillColor=none;top=0;left=0;bottom=0;right=0;align=left;spacingLeft=6;" parent="GycDy_H_GqbqvFSR0S_4-335" vertex="1">
          <mxGeometry x="245" width="100" height="30" as="geometry">
            <mxRectangle width="100" height="30" as="alternateBounds" />
          </mxGeometry>
        </mxCell>
        <mxCell id="GycDy_H_GqbqvFSR0S_4-339" style="shape=partialRectangle;collapsible=0;dropTarget=0;pointerEvents=0;fillColor=none;points=[[0,0.5],[1,0.5]];portConstraint=eastwest;top=0;left=0;right=0;bottom=0;" parent="GycDy_H_GqbqvFSR0S_4-326" vertex="1">
          <mxGeometry y="90" width="345" height="30" as="geometry" />
        </mxCell>
        <mxCell id="GycDy_H_GqbqvFSR0S_4-340" value="NOT NULL" style="shape=partialRectangle;overflow=hidden;connectable=0;fillColor=none;top=0;left=0;bottom=0;right=0;" parent="GycDy_H_GqbqvFSR0S_4-339" vertex="1">
          <mxGeometry width="70" height="30" as="geometry">
            <mxRectangle width="70" height="30" as="alternateBounds" />
          </mxGeometry>
        </mxCell>
        <mxCell id="GycDy_H_GqbqvFSR0S_4-341" value="txt_nombre" style="shape=partialRectangle;overflow=hidden;connectable=0;fillColor=none;top=0;left=0;bottom=0;right=0;align=left;spacingLeft=6;" parent="GycDy_H_GqbqvFSR0S_4-339" vertex="1">
          <mxGeometry x="70" width="175" height="30" as="geometry">
            <mxRectangle width="175" height="30" as="alternateBounds" />
          </mxGeometry>
        </mxCell>
        <mxCell id="GycDy_H_GqbqvFSR0S_4-342" value="VARCHAR(50)" style="shape=partialRectangle;overflow=hidden;connectable=0;fillColor=none;top=0;left=0;bottom=0;right=0;align=left;spacingLeft=6;" parent="GycDy_H_GqbqvFSR0S_4-339" vertex="1">
          <mxGeometry x="245" width="100" height="30" as="geometry">
            <mxRectangle width="100" height="30" as="alternateBounds" />
          </mxGeometry>
        </mxCell>
        <mxCell id="GycDy_H_GqbqvFSR0S_4-368" value="Imagen_alojamiento" style="shape=table;startSize=30;container=1;collapsible=1;childLayout=tableLayout;fixedRows=1;rowLines=0;fontStyle=1;align=center;resizeLast=1;" parent="1" vertex="1">
          <mxGeometry x="760" y="870" width="345" height="150" as="geometry">
            <mxRectangle x="120" y="120" width="100" height="30" as="alternateBounds" />
          </mxGeometry>
        </mxCell>
        <mxCell id="GycDy_H_GqbqvFSR0S_4-389" style="shape=partialRectangle;collapsible=0;dropTarget=0;pointerEvents=0;fillColor=none;points=[[0,0.5],[1,0.5]];portConstraint=eastwest;top=0;left=0;right=0;bottom=0;" parent="GycDy_H_GqbqvFSR0S_4-368" vertex="1">
          <mxGeometry y="30" width="345" height="30" as="geometry" />
        </mxCell>
        <mxCell id="GycDy_H_GqbqvFSR0S_4-390" value="PK" style="shape=partialRectangle;overflow=hidden;connectable=0;fillColor=none;top=0;left=0;bottom=0;right=0;fontStyle=1;" parent="GycDy_H_GqbqvFSR0S_4-389" vertex="1">
          <mxGeometry width="70" height="30" as="geometry">
            <mxRectangle width="70" height="30" as="alternateBounds" />
          </mxGeometry>
        </mxCell>
        <mxCell id="GycDy_H_GqbqvFSR0S_4-391" value="id_imagen_alojamiento" style="shape=partialRectangle;overflow=hidden;connectable=0;fillColor=none;top=0;left=0;bottom=0;right=0;align=left;spacingLeft=6;fontStyle=5;labelBorderColor=none;" parent="GycDy_H_GqbqvFSR0S_4-389" vertex="1">
          <mxGeometry x="70" width="175" height="30" as="geometry">
            <mxRectangle width="175" height="30" as="alternateBounds" />
          </mxGeometry>
        </mxCell>
        <mxCell id="GycDy_H_GqbqvFSR0S_4-392" value="BIGINT" style="shape=partialRectangle;overflow=hidden;connectable=0;fillColor=none;top=0;left=0;bottom=0;right=0;align=left;spacingLeft=6;fontStyle=0;labelBorderColor=none;" parent="GycDy_H_GqbqvFSR0S_4-389" vertex="1">
          <mxGeometry x="245" width="100" height="30" as="geometry">
            <mxRectangle width="100" height="30" as="alternateBounds" />
          </mxGeometry>
        </mxCell>
        <mxCell id="GycDy_H_GqbqvFSR0S_4-369" style="shape=partialRectangle;collapsible=0;dropTarget=0;pointerEvents=0;fillColor=none;points=[[0,0.5],[1,0.5]];portConstraint=eastwest;top=0;left=0;right=0;bottom=1;" parent="GycDy_H_GqbqvFSR0S_4-368" vertex="1">
          <mxGeometry y="60" width="345" height="30" as="geometry" />
        </mxCell>
        <mxCell id="GycDy_H_GqbqvFSR0S_4-370" value="FK" style="shape=partialRectangle;overflow=hidden;connectable=0;fillColor=none;top=0;left=0;bottom=0;right=0;fontStyle=1;" parent="GycDy_H_GqbqvFSR0S_4-369" vertex="1">
          <mxGeometry width="70" height="30" as="geometry">
            <mxRectangle width="70" height="30" as="alternateBounds" />
          </mxGeometry>
        </mxCell>
        <mxCell id="GycDy_H_GqbqvFSR0S_4-371" value="id_alojamiento" style="shape=partialRectangle;overflow=hidden;connectable=0;fillColor=none;top=0;left=0;bottom=0;right=0;align=left;spacingLeft=6;fontStyle=0;labelBorderColor=none;" parent="GycDy_H_GqbqvFSR0S_4-369" vertex="1">
          <mxGeometry x="70" width="175" height="30" as="geometry">
            <mxRectangle width="175" height="30" as="alternateBounds" />
          </mxGeometry>
        </mxCell>
        <mxCell id="GycDy_H_GqbqvFSR0S_4-372" value="BIGINT" style="shape=partialRectangle;overflow=hidden;connectable=0;fillColor=none;top=0;left=0;bottom=0;right=0;align=left;spacingLeft=6;fontStyle=0;labelBorderColor=none;" parent="GycDy_H_GqbqvFSR0S_4-369" vertex="1">
          <mxGeometry x="245" width="100" height="30" as="geometry">
            <mxRectangle width="100" height="30" as="alternateBounds" />
          </mxGeometry>
        </mxCell>
        <mxCell id="GycDy_H_GqbqvFSR0S_4-377" value="" style="shape=partialRectangle;collapsible=0;dropTarget=0;pointerEvents=0;fillColor=none;points=[[0,0.5],[1,0.5]];portConstraint=eastwest;top=0;left=0;right=0;bottom=0;" parent="GycDy_H_GqbqvFSR0S_4-368" vertex="1">
          <mxGeometry y="90" width="345" height="30" as="geometry" />
        </mxCell>
        <mxCell id="GycDy_H_GqbqvFSR0S_4-378" value="NOT NULL" style="shape=partialRectangle;overflow=hidden;connectable=0;fillColor=none;top=0;left=0;bottom=0;right=0;" parent="GycDy_H_GqbqvFSR0S_4-377" vertex="1">
          <mxGeometry width="70" height="30" as="geometry">
            <mxRectangle width="70" height="30" as="alternateBounds" />
          </mxGeometry>
        </mxCell>
        <mxCell id="GycDy_H_GqbqvFSR0S_4-379" value="datos_imagen" style="shape=partialRectangle;overflow=hidden;connectable=0;fillColor=none;top=0;left=0;bottom=0;right=0;align=left;spacingLeft=6;" parent="GycDy_H_GqbqvFSR0S_4-377" vertex="1">
          <mxGeometry x="70" width="175" height="30" as="geometry">
            <mxRectangle width="175" height="30" as="alternateBounds" />
          </mxGeometry>
        </mxCell>
        <mxCell id="GycDy_H_GqbqvFSR0S_4-380" value="BLOB(64000)" style="shape=partialRectangle;overflow=hidden;connectable=0;fillColor=none;top=0;left=0;bottom=0;right=0;align=left;spacingLeft=6;" parent="GycDy_H_GqbqvFSR0S_4-377" vertex="1">
          <mxGeometry x="245" width="100" height="30" as="geometry">
            <mxRectangle width="100" height="30" as="alternateBounds" />
          </mxGeometry>
        </mxCell>
        <mxCell id="GycDy_H_GqbqvFSR0S_4-381" style="shape=partialRectangle;collapsible=0;dropTarget=0;pointerEvents=0;fillColor=none;points=[[0,0.5],[1,0.5]];portConstraint=eastwest;top=0;left=0;right=0;bottom=0;" parent="GycDy_H_GqbqvFSR0S_4-368" vertex="1">
          <mxGeometry y="120" width="345" height="30" as="geometry" />
        </mxCell>
        <mxCell id="GycDy_H_GqbqvFSR0S_4-382" value="NOT NULL" style="shape=partialRectangle;overflow=hidden;connectable=0;fillColor=none;top=0;left=0;bottom=0;right=0;" parent="GycDy_H_GqbqvFSR0S_4-381" vertex="1">
          <mxGeometry width="70" height="30" as="geometry">
            <mxRectangle width="70" height="30" as="alternateBounds" />
          </mxGeometry>
        </mxCell>
        <mxCell id="GycDy_H_GqbqvFSR0S_4-383" value="num_orden" style="shape=partialRectangle;overflow=hidden;connectable=0;fillColor=none;top=0;left=0;bottom=0;right=0;align=left;spacingLeft=6;" parent="GycDy_H_GqbqvFSR0S_4-381" vertex="1">
          <mxGeometry x="70" width="175" height="30" as="geometry">
            <mxRectangle width="175" height="30" as="alternateBounds" />
          </mxGeometry>
        </mxCell>
        <mxCell id="GycDy_H_GqbqvFSR0S_4-384" value="INTEGER" style="shape=partialRectangle;overflow=hidden;connectable=0;fillColor=none;top=0;left=0;bottom=0;right=0;align=left;spacingLeft=6;" parent="GycDy_H_GqbqvFSR0S_4-381" vertex="1">
          <mxGeometry x="245" width="100" height="30" as="geometry">
            <mxRectangle width="100" height="30" as="alternateBounds" />
          </mxGeometry>
        </mxCell>
        <mxCell id="GycDy_H_GqbqvFSR0S_4-393" value="Ubicacion_alojamiento" style="shape=table;startSize=30;container=1;collapsible=1;childLayout=tableLayout;fixedRows=1;rowLines=0;fontStyle=1;align=center;resizeLast=1;" parent="1" vertex="1">
          <mxGeometry x="305" y="750" width="330" height="280.0000000000002" as="geometry">
            <mxRectangle x="120" y="120" width="100" height="30" as="alternateBounds" />
          </mxGeometry>
        </mxCell>
        <mxCell id="GycDy_H_GqbqvFSR0S_4-394" style="shape=partialRectangle;collapsible=0;dropTarget=0;pointerEvents=0;fillColor=none;points=[[0,0.5],[1,0.5]];portConstraint=eastwest;top=0;left=0;right=0;bottom=0;" parent="GycDy_H_GqbqvFSR0S_4-393" vertex="1">
          <mxGeometry y="30" width="330" height="30" as="geometry" />
        </mxCell>
        <mxCell id="GycDy_H_GqbqvFSR0S_4-395" value="PK" style="shape=partialRectangle;overflow=hidden;connectable=0;fillColor=none;top=0;left=0;bottom=0;right=0;fontStyle=1;" parent="GycDy_H_GqbqvFSR0S_4-394" vertex="1">
          <mxGeometry width="70" height="30" as="geometry">
            <mxRectangle width="70" height="30" as="alternateBounds" />
          </mxGeometry>
        </mxCell>
        <mxCell id="GycDy_H_GqbqvFSR0S_4-396" value="id_ubicacion_alojamiento" style="shape=partialRectangle;overflow=hidden;connectable=0;fillColor=none;top=0;left=0;bottom=0;right=0;align=left;spacingLeft=6;fontStyle=5;labelBorderColor=none;" parent="GycDy_H_GqbqvFSR0S_4-394" vertex="1">
          <mxGeometry x="70" width="160" height="30" as="geometry">
            <mxRectangle width="160" height="30" as="alternateBounds" />
          </mxGeometry>
        </mxCell>
        <mxCell id="GycDy_H_GqbqvFSR0S_4-397" value="BIGINT" style="shape=partialRectangle;overflow=hidden;connectable=0;fillColor=none;top=0;left=0;bottom=0;right=0;align=left;spacingLeft=6;fontStyle=0;labelBorderColor=none;" parent="GycDy_H_GqbqvFSR0S_4-394" vertex="1">
          <mxGeometry x="230" width="100" height="30" as="geometry">
            <mxRectangle width="100" height="30" as="alternateBounds" />
          </mxGeometry>
        </mxCell>
        <mxCell id="GycDy_H_GqbqvFSR0S_4-398" style="shape=partialRectangle;collapsible=0;dropTarget=0;pointerEvents=0;fillColor=none;points=[[0,0.5],[1,0.5]];portConstraint=eastwest;top=0;left=0;right=0;bottom=1;" parent="GycDy_H_GqbqvFSR0S_4-393" vertex="1">
          <mxGeometry y="60" width="330" height="40" as="geometry" />
        </mxCell>
        <mxCell id="GycDy_H_GqbqvFSR0S_4-399" value="FK" style="shape=partialRectangle;overflow=hidden;connectable=0;fillColor=none;top=0;left=0;bottom=0;right=0;fontStyle=1;" parent="GycDy_H_GqbqvFSR0S_4-398" vertex="1">
          <mxGeometry width="70" height="40" as="geometry">
            <mxRectangle width="70" height="40" as="alternateBounds" />
          </mxGeometry>
        </mxCell>
        <mxCell id="GycDy_H_GqbqvFSR0S_4-400" value="id_alojamiento" style="shape=partialRectangle;overflow=hidden;connectable=0;fillColor=none;top=0;left=0;bottom=0;right=0;align=left;spacingLeft=6;fontStyle=0;labelBorderColor=none;" parent="GycDy_H_GqbqvFSR0S_4-398" vertex="1">
          <mxGeometry x="70" width="160" height="40" as="geometry">
            <mxRectangle width="160" height="40" as="alternateBounds" />
          </mxGeometry>
        </mxCell>
        <mxCell id="GycDy_H_GqbqvFSR0S_4-401" value="BIGINT" style="shape=partialRectangle;overflow=hidden;connectable=0;fillColor=none;top=0;left=0;bottom=0;right=0;align=left;spacingLeft=6;fontStyle=0;labelBorderColor=none;" parent="GycDy_H_GqbqvFSR0S_4-398" vertex="1">
          <mxGeometry x="230" width="100" height="40" as="geometry">
            <mxRectangle width="100" height="40" as="alternateBounds" />
          </mxGeometry>
        </mxCell>
        <mxCell id="GycDy_H_GqbqvFSR0S_4-406" value="" style="shape=partialRectangle;collapsible=0;dropTarget=0;pointerEvents=0;fillColor=none;points=[[0,0.5],[1,0.5]];portConstraint=eastwest;top=0;left=0;right=0;bottom=0;" parent="GycDy_H_GqbqvFSR0S_4-393" vertex="1">
          <mxGeometry y="100" width="330" height="30" as="geometry" />
        </mxCell>
        <mxCell id="GycDy_H_GqbqvFSR0S_4-407" value="NOT NULL" style="shape=partialRectangle;overflow=hidden;connectable=0;fillColor=none;top=0;left=0;bottom=0;right=0;" parent="GycDy_H_GqbqvFSR0S_4-406" vertex="1">
          <mxGeometry width="70" height="30" as="geometry">
            <mxRectangle width="70" height="30" as="alternateBounds" />
          </mxGeometry>
        </mxCell>
        <mxCell id="GycDy_H_GqbqvFSR0S_4-408" value="codigo_postal" style="shape=partialRectangle;overflow=hidden;connectable=0;fillColor=none;top=0;left=0;bottom=0;right=0;align=left;spacingLeft=6;" parent="GycDy_H_GqbqvFSR0S_4-406" vertex="1">
          <mxGeometry x="70" width="160" height="30" as="geometry">
            <mxRectangle width="160" height="30" as="alternateBounds" />
          </mxGeometry>
        </mxCell>
        <mxCell id="GycDy_H_GqbqvFSR0S_4-409" value="INTEGER" style="shape=partialRectangle;overflow=hidden;connectable=0;fillColor=none;top=0;left=0;bottom=0;right=0;align=left;spacingLeft=6;" parent="GycDy_H_GqbqvFSR0S_4-406" vertex="1">
          <mxGeometry x="230" width="100" height="30" as="geometry">
            <mxRectangle width="100" height="30" as="alternateBounds" />
          </mxGeometry>
        </mxCell>
        <mxCell id="GycDy_H_GqbqvFSR0S_4-410" style="shape=partialRectangle;collapsible=0;dropTarget=0;pointerEvents=0;fillColor=none;points=[[0,0.5],[1,0.5]];portConstraint=eastwest;top=0;left=0;right=0;bottom=0;" parent="GycDy_H_GqbqvFSR0S_4-393" vertex="1">
          <mxGeometry y="130" width="330" height="30" as="geometry" />
        </mxCell>
        <mxCell id="GycDy_H_GqbqvFSR0S_4-411" value="NOT NULL" style="shape=partialRectangle;overflow=hidden;connectable=0;fillColor=none;top=0;left=0;bottom=0;right=0;" parent="GycDy_H_GqbqvFSR0S_4-410" vertex="1">
          <mxGeometry width="70" height="30" as="geometry">
            <mxRectangle width="70" height="30" as="alternateBounds" />
          </mxGeometry>
        </mxCell>
        <mxCell id="GycDy_H_GqbqvFSR0S_4-412" value="ciudad" style="shape=partialRectangle;overflow=hidden;connectable=0;fillColor=none;top=0;left=0;bottom=0;right=0;align=left;spacingLeft=6;" parent="GycDy_H_GqbqvFSR0S_4-410" vertex="1">
          <mxGeometry x="70" width="160" height="30" as="geometry">
            <mxRectangle width="160" height="30" as="alternateBounds" />
          </mxGeometry>
        </mxCell>
        <mxCell id="GycDy_H_GqbqvFSR0S_4-413" value="VARCHAR(60)" style="shape=partialRectangle;overflow=hidden;connectable=0;fillColor=none;top=0;left=0;bottom=0;right=0;align=left;spacingLeft=6;" parent="GycDy_H_GqbqvFSR0S_4-410" vertex="1">
          <mxGeometry x="230" width="100" height="30" as="geometry">
            <mxRectangle width="100" height="30" as="alternateBounds" />
          </mxGeometry>
        </mxCell>
        <mxCell id="GycDy_H_GqbqvFSR0S_4-414" style="shape=partialRectangle;collapsible=0;dropTarget=0;pointerEvents=0;fillColor=none;points=[[0,0.5],[1,0.5]];portConstraint=eastwest;top=0;left=0;right=0;bottom=0;" parent="GycDy_H_GqbqvFSR0S_4-393" vertex="1">
          <mxGeometry y="160" width="330" height="30" as="geometry" />
        </mxCell>
        <mxCell id="GycDy_H_GqbqvFSR0S_4-415" value="NOT NULL" style="shape=partialRectangle;overflow=hidden;connectable=0;fillColor=none;top=0;left=0;bottom=0;right=0;" parent="GycDy_H_GqbqvFSR0S_4-414" vertex="1">
          <mxGeometry width="70" height="30" as="geometry">
            <mxRectangle width="70" height="30" as="alternateBounds" />
          </mxGeometry>
        </mxCell>
        <mxCell id="GycDy_H_GqbqvFSR0S_4-416" value="provincia" style="shape=partialRectangle;overflow=hidden;connectable=0;fillColor=none;top=0;left=0;bottom=0;right=0;align=left;spacingLeft=6;" parent="GycDy_H_GqbqvFSR0S_4-414" vertex="1">
          <mxGeometry x="70" width="160" height="30" as="geometry">
            <mxRectangle width="160" height="30" as="alternateBounds" />
          </mxGeometry>
        </mxCell>
        <mxCell id="GycDy_H_GqbqvFSR0S_4-417" value="VARCHAR(60)" style="shape=partialRectangle;overflow=hidden;connectable=0;fillColor=none;top=0;left=0;bottom=0;right=0;align=left;spacingLeft=6;" parent="GycDy_H_GqbqvFSR0S_4-414" vertex="1">
          <mxGeometry x="230" width="100" height="30" as="geometry">
            <mxRectangle width="100" height="30" as="alternateBounds" />
          </mxGeometry>
        </mxCell>
        <mxCell id="GycDy_H_GqbqvFSR0S_4-418" style="shape=partialRectangle;collapsible=0;dropTarget=0;pointerEvents=0;fillColor=none;points=[[0,0.5],[1,0.5]];portConstraint=eastwest;top=0;left=0;right=0;bottom=0;" parent="GycDy_H_GqbqvFSR0S_4-393" vertex="1">
          <mxGeometry y="190" width="330" height="30" as="geometry" />
        </mxCell>
        <mxCell id="GycDy_H_GqbqvFSR0S_4-419" value="NOT NULL" style="shape=partialRectangle;overflow=hidden;connectable=0;fillColor=none;top=0;left=0;bottom=0;right=0;" parent="GycDy_H_GqbqvFSR0S_4-418" vertex="1">
          <mxGeometry width="70" height="30" as="geometry">
            <mxRectangle width="70" height="30" as="alternateBounds" />
          </mxGeometry>
        </mxCell>
        <mxCell id="GycDy_H_GqbqvFSR0S_4-420" value="linea_direccion" style="shape=partialRectangle;overflow=hidden;connectable=0;fillColor=none;top=0;left=0;bottom=0;right=0;align=left;spacingLeft=6;" parent="GycDy_H_GqbqvFSR0S_4-418" vertex="1">
          <mxGeometry x="70" width="160" height="30" as="geometry">
            <mxRectangle width="160" height="30" as="alternateBounds" />
          </mxGeometry>
        </mxCell>
        <mxCell id="GycDy_H_GqbqvFSR0S_4-421" value="VARCHAR(255)" style="shape=partialRectangle;overflow=hidden;connectable=0;fillColor=none;top=0;left=0;bottom=0;right=0;align=left;spacingLeft=6;" parent="GycDy_H_GqbqvFSR0S_4-418" vertex="1">
          <mxGeometry x="230" width="100" height="30" as="geometry">
            <mxRectangle width="100" height="30" as="alternateBounds" />
          </mxGeometry>
        </mxCell>
        <mxCell id="GycDy_H_GqbqvFSR0S_4-422" style="shape=partialRectangle;collapsible=0;dropTarget=0;pointerEvents=0;fillColor=none;points=[[0,0.5],[1,0.5]];portConstraint=eastwest;top=0;left=0;right=0;bottom=0;" parent="GycDy_H_GqbqvFSR0S_4-393" vertex="1">
          <mxGeometry y="220" width="330" height="30" as="geometry" />
        </mxCell>
        <mxCell id="GycDy_H_GqbqvFSR0S_4-423" value="" style="shape=partialRectangle;overflow=hidden;connectable=0;fillColor=none;top=0;left=0;bottom=0;right=0;" parent="GycDy_H_GqbqvFSR0S_4-422" vertex="1">
          <mxGeometry width="70" height="30" as="geometry">
            <mxRectangle width="70" height="30" as="alternateBounds" />
          </mxGeometry>
        </mxCell>
        <mxCell id="GycDy_H_GqbqvFSR0S_4-424" value="longitud" style="shape=partialRectangle;overflow=hidden;connectable=0;fillColor=none;top=0;left=0;bottom=0;right=0;align=left;spacingLeft=6;" parent="GycDy_H_GqbqvFSR0S_4-422" vertex="1">
          <mxGeometry x="70" width="160" height="30" as="geometry">
            <mxRectangle width="160" height="30" as="alternateBounds" />
          </mxGeometry>
        </mxCell>
        <mxCell id="GycDy_H_GqbqvFSR0S_4-425" value="VARCHAR(255)" style="shape=partialRectangle;overflow=hidden;connectable=0;fillColor=none;top=0;left=0;bottom=0;right=0;align=left;spacingLeft=6;" parent="GycDy_H_GqbqvFSR0S_4-422" vertex="1">
          <mxGeometry x="230" width="100" height="30" as="geometry">
            <mxRectangle width="100" height="30" as="alternateBounds" />
          </mxGeometry>
        </mxCell>
        <mxCell id="GycDy_H_GqbqvFSR0S_4-426" style="shape=partialRectangle;collapsible=0;dropTarget=0;pointerEvents=0;fillColor=none;points=[[0,0.5],[1,0.5]];portConstraint=eastwest;top=0;left=0;right=0;bottom=0;" parent="GycDy_H_GqbqvFSR0S_4-393" vertex="1">
          <mxGeometry y="250" width="330" height="30" as="geometry" />
        </mxCell>
        <mxCell id="GycDy_H_GqbqvFSR0S_4-427" value="" style="shape=partialRectangle;overflow=hidden;connectable=0;fillColor=none;top=0;left=0;bottom=0;right=0;" parent="GycDy_H_GqbqvFSR0S_4-426" vertex="1">
          <mxGeometry width="70" height="30" as="geometry">
            <mxRectangle width="70" height="30" as="alternateBounds" />
          </mxGeometry>
        </mxCell>
        <mxCell id="GycDy_H_GqbqvFSR0S_4-428" value="latitud" style="shape=partialRectangle;overflow=hidden;connectable=0;fillColor=none;top=0;left=0;bottom=0;right=0;align=left;spacingLeft=6;" parent="GycDy_H_GqbqvFSR0S_4-426" vertex="1">
          <mxGeometry x="70" width="160" height="30" as="geometry">
            <mxRectangle width="160" height="30" as="alternateBounds" />
          </mxGeometry>
        </mxCell>
        <mxCell id="GycDy_H_GqbqvFSR0S_4-429" value="VARCHAR(255)" style="shape=partialRectangle;overflow=hidden;connectable=0;fillColor=none;top=0;left=0;bottom=0;right=0;align=left;spacingLeft=6;" parent="GycDy_H_GqbqvFSR0S_4-426" vertex="1">
          <mxGeometry x="230" width="100" height="30" as="geometry">
            <mxRectangle width="100" height="30" as="alternateBounds" />
          </mxGeometry>
        </mxCell>
        <mxCell id="GycDy_H_GqbqvFSR0S_4-434" value="Valoracion_alojamiento" style="shape=table;startSize=30;container=1;collapsible=1;childLayout=tableLayout;fixedRows=1;rowLines=0;fontStyle=1;align=center;resizeLast=1;" parent="1" vertex="1">
          <mxGeometry x="300" y="460" width="340" height="210" as="geometry">
            <mxRectangle x="120" y="120" width="100" height="30" as="alternateBounds" />
          </mxGeometry>
        </mxCell>
        <mxCell id="GycDy_H_GqbqvFSR0S_4-467" style="shape=partialRectangle;collapsible=0;dropTarget=0;pointerEvents=0;fillColor=none;points=[[0,0.5],[1,0.5]];portConstraint=eastwest;top=0;left=0;right=0;bottom=0;" parent="GycDy_H_GqbqvFSR0S_4-434" vertex="1">
          <mxGeometry y="30" width="340" height="30" as="geometry" />
        </mxCell>
        <mxCell id="GycDy_H_GqbqvFSR0S_4-468" value="PK" style="shape=partialRectangle;overflow=hidden;connectable=0;fillColor=none;top=0;left=0;bottom=0;right=0;fontStyle=1;" parent="GycDy_H_GqbqvFSR0S_4-467" vertex="1">
          <mxGeometry width="70" height="30" as="geometry">
            <mxRectangle width="70" height="30" as="alternateBounds" />
          </mxGeometry>
        </mxCell>
        <mxCell id="GycDy_H_GqbqvFSR0S_4-469" value="id_valoracion_alojamiento" style="shape=partialRectangle;overflow=hidden;connectable=0;fillColor=none;top=0;left=0;bottom=0;right=0;align=left;spacingLeft=6;fontStyle=5;labelBorderColor=none;" parent="GycDy_H_GqbqvFSR0S_4-467" vertex="1">
          <mxGeometry x="70" width="170" height="30" as="geometry">
            <mxRectangle width="170" height="30" as="alternateBounds" />
          </mxGeometry>
        </mxCell>
        <mxCell id="GycDy_H_GqbqvFSR0S_4-470" value="BIGINT" style="shape=partialRectangle;overflow=hidden;connectable=0;fillColor=none;top=0;left=0;bottom=0;right=0;align=left;spacingLeft=6;fontStyle=0;labelBorderColor=none;" parent="GycDy_H_GqbqvFSR0S_4-467" vertex="1">
          <mxGeometry x="240" width="100" height="30" as="geometry">
            <mxRectangle width="100" height="30" as="alternateBounds" />
          </mxGeometry>
        </mxCell>
        <mxCell id="GycDy_H_GqbqvFSR0S_4-435" style="shape=partialRectangle;collapsible=0;dropTarget=0;pointerEvents=0;fillColor=none;points=[[0,0.5],[1,0.5]];portConstraint=eastwest;top=0;left=0;right=0;bottom=0;" parent="GycDy_H_GqbqvFSR0S_4-434" vertex="1">
          <mxGeometry y="60" width="340" height="30" as="geometry" />
        </mxCell>
        <mxCell id="GycDy_H_GqbqvFSR0S_4-436" value="FK" style="shape=partialRectangle;overflow=hidden;connectable=0;fillColor=none;top=0;left=0;bottom=0;right=0;fontStyle=1;" parent="GycDy_H_GqbqvFSR0S_4-435" vertex="1">
          <mxGeometry width="70" height="30" as="geometry">
            <mxRectangle width="70" height="30" as="alternateBounds" />
          </mxGeometry>
        </mxCell>
        <mxCell id="GycDy_H_GqbqvFSR0S_4-437" value="id_usuario" style="shape=partialRectangle;overflow=hidden;connectable=0;fillColor=none;top=0;left=0;bottom=0;right=0;align=left;spacingLeft=6;fontStyle=0;labelBorderColor=none;" parent="GycDy_H_GqbqvFSR0S_4-435" vertex="1">
          <mxGeometry x="70" width="170" height="30" as="geometry">
            <mxRectangle width="170" height="30" as="alternateBounds" />
          </mxGeometry>
        </mxCell>
        <mxCell id="GycDy_H_GqbqvFSR0S_4-438" value="BIGINT" style="shape=partialRectangle;overflow=hidden;connectable=0;fillColor=none;top=0;left=0;bottom=0;right=0;align=left;spacingLeft=6;fontStyle=0;labelBorderColor=none;" parent="GycDy_H_GqbqvFSR0S_4-435" vertex="1">
          <mxGeometry x="240" width="100" height="30" as="geometry">
            <mxRectangle width="100" height="30" as="alternateBounds" />
          </mxGeometry>
        </mxCell>
        <mxCell id="GycDy_H_GqbqvFSR0S_4-439" style="shape=partialRectangle;collapsible=0;dropTarget=0;pointerEvents=0;fillColor=none;points=[[0,0.5],[1,0.5]];portConstraint=eastwest;top=0;left=0;right=0;bottom=1;" parent="GycDy_H_GqbqvFSR0S_4-434" vertex="1">
          <mxGeometry y="90" width="340" height="30" as="geometry" />
        </mxCell>
        <mxCell id="GycDy_H_GqbqvFSR0S_4-440" value="FK" style="shape=partialRectangle;overflow=hidden;connectable=0;fillColor=none;top=0;left=0;bottom=0;right=0;fontStyle=1;" parent="GycDy_H_GqbqvFSR0S_4-439" vertex="1">
          <mxGeometry width="70" height="30" as="geometry">
            <mxRectangle width="70" height="30" as="alternateBounds" />
          </mxGeometry>
        </mxCell>
        <mxCell id="GycDy_H_GqbqvFSR0S_4-441" value="id_alojamiento" style="shape=partialRectangle;overflow=hidden;connectable=0;fillColor=none;top=0;left=0;bottom=0;right=0;align=left;spacingLeft=6;fontStyle=0;labelBorderColor=none;" parent="GycDy_H_GqbqvFSR0S_4-439" vertex="1">
          <mxGeometry x="70" width="170" height="30" as="geometry">
            <mxRectangle width="170" height="30" as="alternateBounds" />
          </mxGeometry>
        </mxCell>
        <mxCell id="GycDy_H_GqbqvFSR0S_4-442" value="BIGINT" style="shape=partialRectangle;overflow=hidden;connectable=0;fillColor=none;top=0;left=0;bottom=0;right=0;align=left;spacingLeft=6;fontStyle=0;labelBorderColor=none;" parent="GycDy_H_GqbqvFSR0S_4-439" vertex="1">
          <mxGeometry x="240" width="100" height="30" as="geometry">
            <mxRectangle width="100" height="30" as="alternateBounds" />
          </mxGeometry>
        </mxCell>
        <mxCell id="GycDy_H_GqbqvFSR0S_4-443" value="" style="shape=partialRectangle;collapsible=0;dropTarget=0;pointerEvents=0;fillColor=none;points=[[0,0.5],[1,0.5]];portConstraint=eastwest;top=0;left=0;right=0;bottom=0;" parent="GycDy_H_GqbqvFSR0S_4-434" vertex="1">
          <mxGeometry y="120" width="340" height="30" as="geometry" />
        </mxCell>
        <mxCell id="GycDy_H_GqbqvFSR0S_4-444" value="NOT NULL" style="shape=partialRectangle;overflow=hidden;connectable=0;fillColor=none;top=0;left=0;bottom=0;right=0;" parent="GycDy_H_GqbqvFSR0S_4-443" vertex="1">
          <mxGeometry width="70" height="30" as="geometry">
            <mxRectangle width="70" height="30" as="alternateBounds" />
          </mxGeometry>
        </mxCell>
        <mxCell id="GycDy_H_GqbqvFSR0S_4-445" value="txt_mensaje" style="shape=partialRectangle;overflow=hidden;connectable=0;fillColor=none;top=0;left=0;bottom=0;right=0;align=left;spacingLeft=6;" parent="GycDy_H_GqbqvFSR0S_4-443" vertex="1">
          <mxGeometry x="70" width="170" height="30" as="geometry">
            <mxRectangle width="170" height="30" as="alternateBounds" />
          </mxGeometry>
        </mxCell>
        <mxCell id="GycDy_H_GqbqvFSR0S_4-446" value="VARCHAR(255)" style="shape=partialRectangle;overflow=hidden;connectable=0;fillColor=none;top=0;left=0;bottom=0;right=0;align=left;spacingLeft=6;" parent="GycDy_H_GqbqvFSR0S_4-443" vertex="1">
          <mxGeometry x="240" width="100" height="30" as="geometry">
            <mxRectangle width="100" height="30" as="alternateBounds" />
          </mxGeometry>
        </mxCell>
        <mxCell id="GycDy_H_GqbqvFSR0S_4-447" style="shape=partialRectangle;collapsible=0;dropTarget=0;pointerEvents=0;fillColor=none;points=[[0,0.5],[1,0.5]];portConstraint=eastwest;top=0;left=0;right=0;bottom=0;" parent="GycDy_H_GqbqvFSR0S_4-434" vertex="1">
          <mxGeometry y="150" width="340" height="30" as="geometry" />
        </mxCell>
        <mxCell id="GycDy_H_GqbqvFSR0S_4-448" value="NOT NULL" style="shape=partialRectangle;overflow=hidden;connectable=0;fillColor=none;top=0;left=0;bottom=0;right=0;" parent="GycDy_H_GqbqvFSR0S_4-447" vertex="1">
          <mxGeometry width="70" height="30" as="geometry">
            <mxRectangle width="70" height="30" as="alternateBounds" />
          </mxGeometry>
        </mxCell>
        <mxCell id="GycDy_H_GqbqvFSR0S_4-449" value="txt_asunto" style="shape=partialRectangle;overflow=hidden;connectable=0;fillColor=none;top=0;left=0;bottom=0;right=0;align=left;spacingLeft=6;" parent="GycDy_H_GqbqvFSR0S_4-447" vertex="1">
          <mxGeometry x="70" width="170" height="30" as="geometry">
            <mxRectangle width="170" height="30" as="alternateBounds" />
          </mxGeometry>
        </mxCell>
        <mxCell id="GycDy_H_GqbqvFSR0S_4-450" value="VARCHAR(50)" style="shape=partialRectangle;overflow=hidden;connectable=0;fillColor=none;top=0;left=0;bottom=0;right=0;align=left;spacingLeft=6;" parent="GycDy_H_GqbqvFSR0S_4-447" vertex="1">
          <mxGeometry x="240" width="100" height="30" as="geometry">
            <mxRectangle width="100" height="30" as="alternateBounds" />
          </mxGeometry>
        </mxCell>
        <mxCell id="GycDy_H_GqbqvFSR0S_4-451" style="shape=partialRectangle;collapsible=0;dropTarget=0;pointerEvents=0;fillColor=none;points=[[0,0.5],[1,0.5]];portConstraint=eastwest;top=0;left=0;right=0;bottom=0;" parent="GycDy_H_GqbqvFSR0S_4-434" vertex="1">
          <mxGeometry y="180" width="340" height="30" as="geometry" />
        </mxCell>
        <mxCell id="GycDy_H_GqbqvFSR0S_4-452" value="NOT NULL" style="shape=partialRectangle;overflow=hidden;connectable=0;fillColor=none;top=0;left=0;bottom=0;right=0;" parent="GycDy_H_GqbqvFSR0S_4-451" vertex="1">
          <mxGeometry width="70" height="30" as="geometry">
            <mxRectangle width="70" height="30" as="alternateBounds" />
          </mxGeometry>
        </mxCell>
        <mxCell id="GycDy_H_GqbqvFSR0S_4-453" value="puntuacion" style="shape=partialRectangle;overflow=hidden;connectable=0;fillColor=none;top=0;left=0;bottom=0;right=0;align=left;spacingLeft=6;" parent="GycDy_H_GqbqvFSR0S_4-451" vertex="1">
          <mxGeometry x="70" width="170" height="30" as="geometry">
            <mxRectangle width="170" height="30" as="alternateBounds" />
          </mxGeometry>
        </mxCell>
        <mxCell id="GycDy_H_GqbqvFSR0S_4-454" value="INTEGER" style="shape=partialRectangle;overflow=hidden;connectable=0;fillColor=none;top=0;left=0;bottom=0;right=0;align=left;spacingLeft=6;" parent="GycDy_H_GqbqvFSR0S_4-451" vertex="1">
          <mxGeometry x="240" width="100" height="30" as="geometry">
            <mxRectangle width="100" height="30" as="alternateBounds" />
          </mxGeometry>
        </mxCell>
        <mxCell id="GycDy_H_GqbqvFSR0S_4-475" value="" style="edgeStyle=orthogonalEdgeStyle;fontSize=12;html=1;endArrow=ERzeroToMany;startArrow=ERmandOne;rounded=1;startSize=8;endSize=8;curved=0;" parent="1" source="GycDy_H_GqbqvFSR0S_4-199" target="GycDy_H_GqbqvFSR0S_4-162" edge="1">
          <mxGeometry width="100" height="100" relative="1" as="geometry">
            <mxPoint x="965" y="220" as="sourcePoint" />
            <mxPoint x="1065" y="120" as="targetPoint" />
            <Array as="points">
              <mxPoint x="1180" y="245" />
              <mxPoint x="1180" y="195" />
            </Array>
          </mxGeometry>
        </mxCell>
        <mxCell id="GycDy_H_GqbqvFSR0S_4-484" value="" style="edgeStyle=orthogonalEdgeStyle;fontSize=12;html=1;endArrow=ERmandOne;startArrow=ERmandOne;rounded=1;startSize=8;endSize=8;exitX=1;exitY=0.5;exitDx=0;exitDy=0;" parent="1" source="GycDy_H_GqbqvFSR0S_4-398" target="GycDy_H_GqbqvFSR0S_4-145" edge="1">
          <mxGeometry width="100" height="100" relative="1" as="geometry">
            <mxPoint x="835" y="640" as="sourcePoint" />
            <mxPoint x="785" y="510" as="targetPoint" />
            <Array as="points">
              <mxPoint x="730" y="825" />
              <mxPoint x="730" y="510" />
            </Array>
          </mxGeometry>
        </mxCell>
        <mxCell id="Tbb08zhZ55a-EsDUvBZ_-2" value="" style="edgeStyle=elbowEdgeStyle;fontSize=12;html=1;endArrow=ERzeroToMany;startArrow=ERmandOne;rounded=1;startSize=8;endSize=8;exitX=1;exitY=0.5;exitDx=0;exitDy=0;" parent="1" source="GycDy_H_GqbqvFSR0S_4-327" target="GycDy_H_GqbqvFSR0S_4-306" edge="1">
          <mxGeometry width="100" height="100" relative="1" as="geometry">
            <mxPoint x="1320" y="860" as="sourcePoint" />
            <mxPoint x="1420" y="760" as="targetPoint" />
            <Array as="points">
              <mxPoint x="1600" y="740" />
            </Array>
          </mxGeometry>
        </mxCell>
        <mxCell id="Tbb08zhZ55a-EsDUvBZ_-4" value="" style="edgeStyle=elbowEdgeStyle;fontSize=12;html=1;endArrow=ERzeroToMany;startArrow=ERmandOne;rounded=1;startSize=8;endSize=8;exitX=0.001;exitY=0.133;exitDx=0;exitDy=0;exitPerimeter=0;" parent="1" target="GycDy_H_GqbqvFSR0S_4-228" edge="1">
          <mxGeometry width="100" height="100" relative="1" as="geometry">
            <mxPoint x="785.3200000000002" y="483.99" as="sourcePoint" />
            <mxPoint x="740" y="310" as="targetPoint" />
            <Array as="points">
              <mxPoint x="730" y="350" />
            </Array>
          </mxGeometry>
        </mxCell>
        <mxCell id="Tbb08zhZ55a-EsDUvBZ_-6" value="" style="edgeStyle=orthogonalEdgeStyle;fontSize=12;html=1;endArrow=ERzeroToMany;startArrow=ERmandOne;rounded=1;startSize=8;endSize=8;" parent="1" source="GycDy_H_GqbqvFSR0S_4-154" target="GycDy_H_GqbqvFSR0S_4-232" edge="1">
          <mxGeometry width="100" height="100" relative="1" as="geometry">
            <mxPoint x="690" y="370" as="sourcePoint" />
            <mxPoint x="680" y="260" as="targetPoint" />
            <Array as="points">
              <mxPoint x="710" y="154" />
              <mxPoint x="710" y="244" />
            </Array>
          </mxGeometry>
        </mxCell>
        <mxCell id="Tbb08zhZ55a-EsDUvBZ_-7" value="" style="edgeStyle=orthogonalEdgeStyle;fontSize=12;html=1;endArrow=ERzeroToMany;startArrow=ERmandOne;rounded=1;startSize=8;endSize=8;curved=0;" parent="1" source="GycDy_H_GqbqvFSR0S_4-154" target="GycDy_H_GqbqvFSR0S_4-435" edge="1">
          <mxGeometry width="100" height="100" relative="1" as="geometry">
            <mxPoint x="758" y="177" as="sourcePoint" />
            <mxPoint x="670" y="420" as="targetPoint" />
            <Array as="points">
              <mxPoint x="680" y="177" />
              <mxPoint x="680" y="535" />
            </Array>
          </mxGeometry>
        </mxCell>
        <mxCell id="Tbb08zhZ55a-EsDUvBZ_-8" value="" style="edgeStyle=elbowEdgeStyle;fontSize=12;html=1;endArrow=ERzeroToMany;startArrow=ERmandOne;rounded=1;startSize=8;endSize=8;curved=0;" parent="1" target="GycDy_H_GqbqvFSR0S_4-439" edge="1">
          <mxGeometry width="100" height="100" relative="1" as="geometry">
            <mxPoint x="785" y="495" as="sourcePoint" />
            <mxPoint x="700" y="440" as="targetPoint" />
            <Array as="points">
              <mxPoint x="690" y="520" />
            </Array>
          </mxGeometry>
        </mxCell>
        <mxCell id="Tbb08zhZ55a-EsDUvBZ_-10" value="" style="edgeStyle=entityRelationEdgeStyle;fontSize=12;html=1;endArrow=ERoneToMany;startArrow=ERmandOne;rounded=1;startSize=8;endSize=8;curved=0;exitX=0.998;exitY=0.28;exitDx=0;exitDy=0;exitPerimeter=0;" parent="1" target="GycDy_H_GqbqvFSR0S_4-369" edge="1">
          <mxGeometry width="100" height="100" relative="1" as="geometry">
            <mxPoint x="1104.3600000000001" y="488.4000000000001" as="sourcePoint" />
            <mxPoint x="1170" y="690" as="targetPoint" />
          </mxGeometry>
        </mxCell>
        <mxCell id="Tbb08zhZ55a-EsDUvBZ_-16" value="" style="edgeStyle=elbowEdgeStyle;fontSize=12;html=1;endArrow=ERzeroToMany;endFill=1;startArrow=ERzeroToMany;rounded=1;startSize=8;endSize=8;curved=0;exitX=0.997;exitY=0.785;exitDx=0;exitDy=0;exitPerimeter=0;" parent="1" edge="1">
          <mxGeometry width="100" height="100" relative="1" as="geometry">
            <mxPoint x="1104.0400000000004" y="503.54999999999995" as="sourcePoint" />
            <mxPoint x="1230" y="538.79" as="targetPoint" />
            <Array as="points">
              <mxPoint x="1180" y="538.79" />
            </Array>
          </mxGeometry>
        </mxCell>
        <mxCell id="Tbb08zhZ55a-EsDUvBZ_-18" value="" style="edgeStyle=elbowEdgeStyle;fontSize=12;html=1;endArrow=ERzeroToMany;startArrow=ERmandOne;rounded=1;startSize=8;endSize=8;curved=0;" parent="1" source="GycDy_H_GqbqvFSR0S_4-154" target="GycDy_H_GqbqvFSR0S_4-137" edge="1">
          <mxGeometry width="100" height="100" relative="1" as="geometry">
            <mxPoint x="1170" y="220" as="sourcePoint" />
            <mxPoint x="1170" y="580" as="targetPoint" />
            <Array as="points">
              <mxPoint x="1150" y="360" />
            </Array>
          </mxGeometry>
        </mxCell>
        <mxCell id="mGSZd0utrWz6Nr2re_fI-4" value="" style="fontSize=12;html=1;endArrow=ERzeroToMany;startArrow=ERmandOne;rounded=0;startSize=8;endSize=8;" parent="1" edge="1">
          <mxGeometry width="100" height="100" relative="1" as="geometry">
            <mxPoint x="48" y="492" as="sourcePoint" />
            <mxPoint x="101" y="492" as="targetPoint" />
          </mxGeometry>
        </mxCell>
        <mxCell id="mGSZd0utrWz6Nr2re_fI-5" value="&lt;font style=&quot;font-size: 11px;&quot;&gt;One mandatory to many optional&lt;/font&gt;" style="text;html=1;align=center;verticalAlign=middle;whiteSpace=wrap;rounded=0;fontSize=16;" parent="1" vertex="1">
          <mxGeometry x="110" y="480" width="130" height="30" as="geometry" />
        </mxCell>
        <mxCell id="mGSZd0utrWz6Nr2re_fI-6" value="" style="edgeStyle=entityRelationEdgeStyle;fontSize=12;html=1;endArrow=ERmandOne;startArrow=ERmandOne;rounded=0;startSize=8;endSize=8;curved=1;" parent="1" edge="1">
          <mxGeometry width="100" height="100" relative="1" as="geometry">
            <mxPoint x="48" y="538" as="sourcePoint" />
            <mxPoint x="103" y="538" as="targetPoint" />
          </mxGeometry>
        </mxCell>
        <mxCell id="mGSZd0utrWz6Nr2re_fI-7" value="&lt;font style=&quot;font-size: 11px;&quot;&gt;One mandatory to one mandatory&lt;/font&gt;" style="text;html=1;align=center;verticalAlign=middle;whiteSpace=wrap;rounded=0;fontSize=16;" parent="1" vertex="1">
          <mxGeometry x="110" y="530" width="130" height="30" as="geometry" />
        </mxCell>
        <mxCell id="mGSZd0utrWz6Nr2re_fI-8" value="" style="edgeStyle=entityRelationEdgeStyle;fontSize=12;html=1;endArrow=ERoneToMany;startArrow=ERmandOne;rounded=0;startSize=8;endSize=8;curved=1;" parent="1" edge="1">
          <mxGeometry width="100" height="100" relative="1" as="geometry">
            <mxPoint x="49" y="592" as="sourcePoint" />
            <mxPoint x="105" y="592" as="targetPoint" />
          </mxGeometry>
        </mxCell>
        <mxCell id="mGSZd0utrWz6Nr2re_fI-9" value="&lt;font style=&quot;font-size: 11px;&quot;&gt;One mandatory to many mandatory&lt;/font&gt;" style="text;html=1;align=center;verticalAlign=middle;whiteSpace=wrap;rounded=0;fontSize=16;" parent="1" vertex="1">
          <mxGeometry x="110" y="580" width="130" height="30" as="geometry" />
        </mxCell>
        <mxCell id="mGSZd0utrWz6Nr2re_fI-10" value="" style="edgeStyle=entityRelationEdgeStyle;fontSize=12;html=1;endArrow=ERzeroToMany;endFill=1;startArrow=ERzeroToMany;rounded=0;startSize=8;endSize=8;curved=1;" parent="1" edge="1">
          <mxGeometry width="100" height="100" relative="1" as="geometry">
            <mxPoint x="50" y="640" as="sourcePoint" />
            <mxPoint x="110" y="640" as="targetPoint" />
          </mxGeometry>
        </mxCell>
        <mxCell id="mGSZd0utrWz6Nr2re_fI-11" value="&lt;font style=&quot;font-size: 11px;&quot;&gt;Many optional to Many optional&lt;/font&gt;" style="text;html=1;align=center;verticalAlign=middle;whiteSpace=wrap;rounded=0;fontSize=16;" parent="1" vertex="1">
          <mxGeometry x="110" y="630" width="130" height="30" as="geometry" />
        </mxCell>
        <mxCell id="mGSZd0utrWz6Nr2re_fI-12" value="" style="endArrow=none;html=1;rounded=0;fontSize=12;startSize=8;endSize=8;curved=1;" parent="1" edge="1">
          <mxGeometry width="50" height="50" relative="1" as="geometry">
            <mxPoint x="39" y="691" as="sourcePoint" />
            <mxPoint x="260" y="692" as="targetPoint" />
          </mxGeometry>
        </mxCell>
        <mxCell id="mGSZd0utrWz6Nr2re_fI-13" value="&lt;font size=&quot;1&quot; style=&quot;&quot;&gt;&lt;b style=&quot;font-size: 15px;&quot;&gt;CARDINALIDAD&lt;/b&gt;&lt;/font&gt;" style="text;html=1;align=center;verticalAlign=middle;whiteSpace=wrap;rounded=0;fontSize=16;" parent="1" vertex="1">
          <mxGeometry x="85" y="690" width="130" height="30" as="geometry" />
        </mxCell>
      </root>
    </mxGraphModel>
  </diagram>
</mxfile>
